solid CATIA STL
  facet normal  -0.000000e+000 -1.000000e+000  0.000000e+000
    outer loop
      vertex  7.000000e+000 -3.000000e+000  8.405410e+001
      vertex  1.500000e+001 -3.000000e+000  8.555410e+001
      vertex  1.461732e+001 -3.000000e+000  8.563023e+001
    endloop
  endfacet
  facet normal  -0.000000e+000 -1.000000e+000  0.000000e+000
    outer loop
      vertex  7.000000e+000 -3.000000e+000  8.405410e+001
      vertex  1.461732e+001 -3.000000e+000  8.563023e+001
      vertex  1.429289e+001 -3.000000e+000  8.584700e+001
    endloop
  endfacet
  facet normal  -0.000000e+000 -1.000000e+000  0.000000e+000
    outer loop
      vertex  7.000000e+000 -3.000000e+000  8.405410e+001
      vertex  1.429289e+001 -3.000000e+000  8.584700e+001
      vertex  1.200000e+001 -3.000000e+000  8.905410e+001
    endloop
  endfacet
  facet normal  0.000000e+000 -1.000000e+000  0.000000e+000
    outer loop
      vertex  3.000000e+000 -3.000000e+000 -3.552714e-015
      vertex  2.700000e+001 -3.000000e+000 -3.552714e-015
      vertex  2.700000e+001 -3.000000e+000  5.000000e+001
    endloop
  endfacet
  facet normal  0.000000e+000 -1.000000e+000  0.000000e+000
    outer loop
      vertex  3.000000e+000 -3.000000e+000 -3.552714e-015
      vertex  2.700000e+001 -3.000000e+000  5.000000e+001
      vertex  1.538269e+001 -3.000000e+000  4.663022e+001
    endloop
  endfacet
  facet normal  0.000000e+000 -1.000000e+000  0.000000e+000
    outer loop
      vertex  3.000000e+000 -3.000000e+000 -3.552714e-015
      vertex  1.538269e+001 -3.000000e+000  4.663022e+001
      vertex  1.500001e+001 -3.000000e+000  4.655410e+001
    endloop
  endfacet
  facet normal  -0.000000e+000 -1.000000e+000  0.000000e+000
    outer loop
      vertex  3.000000e+000 -3.000000e+000 -3.552714e-015
      vertex  1.500001e+001 -3.000000e+000  4.655410e+001
      vertex  1.461733e+001 -3.000000e+000  4.663022e+001
    endloop
  endfacet
  facet normal  -0.000000e+000 -1.000000e+000  0.000000e+000
    outer loop
      vertex  3.000000e+000 -3.000000e+000 -3.552714e-015
      vertex  1.461733e+001 -3.000000e+000  4.663022e+001
      vertex  3.000000e+000 -3.000000e+000  5.000000e+001
    endloop
  endfacet
  facet normal  0.000000e+000 -1.000000e+000  0.000000e+000
    outer loop
      vertex  3.000000e+000 -3.000000e+000  5.000000e+001
      vertex  1.461733e+001 -3.000000e+000  4.663022e+001
      vertex  1.429290e+001 -3.000000e+000  4.684700e+001
    endloop
  endfacet
  facet normal  0.000000e+000 -1.000000e+000  0.000000e+000
    outer loop
      vertex  3.000000e+000 -3.000000e+000  5.000000e+001
      vertex  1.429290e+001 -3.000000e+000  4.684700e+001
      vertex  1.407613e+001 -3.000000e+000  4.717142e+001
    endloop
  endfacet
  facet normal  0.000000e+000 -1.000000e+000  0.000000e+000
    outer loop
      vertex  3.000000e+000 -3.000000e+000  5.000000e+001
      vertex  1.407613e+001 -3.000000e+000  4.717142e+001
      vertex  1.400001e+001 -3.000000e+000  4.755410e+001
    endloop
  endfacet
  facet normal  0.000000e+000 -1.000000e+000  0.000000e+000
    outer loop
      vertex  3.000000e+000 -3.000000e+000  5.000000e+001
      vertex  1.400001e+001 -3.000000e+000  4.755410e+001
      vertex  1.407613e+001 -3.000000e+000  4.793679e+001
    endloop
  endfacet
  facet normal  0.000000e+000 -1.000000e+000  0.000000e+000
    outer loop
      vertex  3.000000e+000 -3.000000e+000  5.000000e+001
      vertex  1.407613e+001 -3.000000e+000  4.793679e+001
      vertex  1.429290e+001 -3.000000e+000  4.826121e+001
    endloop
  endfacet
  facet normal  0.000000e+000 -1.000000e+000  0.000000e+000
    outer loop
      vertex  3.000000e+000 -3.000000e+000  5.000000e+001
      vertex  1.429290e+001 -3.000000e+000  4.826121e+001
      vertex  1.461733e+001 -3.000000e+000  4.847798e+001
    endloop
  endfacet
  facet normal  0.000000e+000 -1.000000e+000  0.000000e+000
    outer loop
      vertex  3.000000e+000 -3.000000e+000  5.000000e+001
      vertex  1.461733e+001 -3.000000e+000  4.847798e+001
      vertex  1.500001e+001 -3.000000e+000  4.855410e+001
    endloop
  endfacet
  facet normal  0.000000e+000 -1.000000e+000  -0.000000e+000
    outer loop
      vertex  1.500000e+001 -3.000000e+000  8.555410e+001
      vertex  7.000000e+000 -3.000000e+000  8.405410e+001
      vertex  0.000000e+000 -3.000000e+000  6.251032e+001
    endloop
  endfacet
  facet normal  0.000000e+000 -1.000000e+000  0.000000e+000
    outer loop
      vertex  1.500000e+001 -3.000000e+000  8.555410e+001
      vertex  0.000000e+000 -3.000000e+000  6.251032e+001
      vertex  0.000000e+000 -3.000000e+000  5.000000e+001
    endloop
  endfacet
  facet normal  0.000000e+000 -1.000000e+000  0.000000e+000
    outer loop
      vertex  1.500000e+001 -3.000000e+000  8.555410e+001
      vertex  0.000000e+000 -3.000000e+000  5.000000e+001
      vertex  3.000000e+000 -3.000000e+000  5.000000e+001
    endloop
  endfacet
  facet normal  0.000000e+000 -1.000000e+000  0.000000e+000
    outer loop
      vertex  1.500000e+001 -3.000000e+000  8.555410e+001
      vertex  3.000000e+000 -3.000000e+000  5.000000e+001
      vertex  1.500001e+001 -3.000000e+000  4.855410e+001
    endloop
  endfacet
  facet normal  0.000000e+000 -9.999999e-001  0.000000e+000
    outer loop
      vertex  1.500000e+001 -3.000000e+000  8.555410e+001
      vertex  1.500001e+001 -3.000000e+000  4.855410e+001
      vertex  2.700000e+001 -3.000000e+000  5.000000e+001
    endloop
  endfacet
  facet normal  0.000000e+000 -1.000000e+000  0.000000e+000
    outer loop
      vertex  1.500000e+001 -3.000000e+000  8.555410e+001
      vertex  2.700000e+001 -3.000000e+000  5.000000e+001
      vertex  3.000000e+001 -3.000000e+000  5.000000e+001
    endloop
  endfacet
  facet normal  0.000000e+000 -1.000000e+000  0.000000e+000
    outer loop
      vertex  1.500000e+001 -3.000000e+000  8.555410e+001
      vertex  3.000000e+001 -3.000000e+000  5.000000e+001
      vertex  3.000000e+001 -3.000000e+000  6.251032e+001
    endloop
  endfacet
  facet normal  0.000000e+000 -1.000000e+000  0.000000e+000
    outer loop
      vertex  1.500000e+001 -3.000000e+000  8.555410e+001
      vertex  3.000000e+001 -3.000000e+000  6.251032e+001
      vertex  2.300000e+001 -3.000000e+000  8.405410e+001
    endloop
  endfacet
  facet normal  0.000000e+000 -1.000000e+000  0.000000e+000
    outer loop
      vertex  1.200000e+001 -3.000000e+000  8.905410e+001
      vertex  1.429289e+001 -3.000000e+000  8.584700e+001
      vertex  1.407612e+001 -3.000000e+000  8.617142e+001
    endloop
  endfacet
  facet normal  0.000000e+000 -1.000000e+000  0.000000e+000
    outer loop
      vertex  1.200000e+001 -3.000000e+000  8.905410e+001
      vertex  1.407612e+001 -3.000000e+000  8.617142e+001
      vertex  1.400000e+001 -3.000000e+000  8.655410e+001
    endloop
  endfacet
  facet normal  0.000000e+000 -1.000000e+000  0.000000e+000
    outer loop
      vertex  1.200000e+001 -3.000000e+000  8.905410e+001
      vertex  1.400000e+001 -3.000000e+000  8.655410e+001
      vertex  1.407612e+001 -3.000000e+000  8.693679e+001
    endloop
  endfacet
  facet normal  0.000000e+000 -1.000000e+000  0.000000e+000
    outer loop
      vertex  1.200000e+001 -3.000000e+000  8.905410e+001
      vertex  1.407612e+001 -3.000000e+000  8.693679e+001
      vertex  1.429289e+001 -3.000000e+000  8.726121e+001
    endloop
  endfacet
  facet normal  0.000000e+000 -1.000000e+000  0.000000e+000
    outer loop
      vertex  1.200000e+001 -3.000000e+000  8.905410e+001
      vertex  1.429289e+001 -3.000000e+000  8.726121e+001
      vertex  1.461732e+001 -3.000000e+000  8.747798e+001
    endloop
  endfacet
  facet normal  0.000000e+000 -1.000000e+000  0.000000e+000
    outer loop
      vertex  1.200000e+001 -3.000000e+000  8.905410e+001
      vertex  1.461732e+001 -3.000000e+000  8.747798e+001
      vertex  1.500000e+001 -3.000000e+000  8.755410e+001
    endloop
  endfacet
  facet normal  0.000000e+000 -1.000000e+000  0.000000e+000
    outer loop
      vertex  1.200000e+001 -3.000000e+000  8.905410e+001
      vertex  1.500000e+001 -3.000000e+000  8.755410e+001
      vertex  1.800000e+001 -3.000000e+000  8.905410e+001
    endloop
  endfacet
  facet normal  0.000000e+000 -1.000000e+000  0.000000e+000
    outer loop
      vertex  2.700000e+001 -3.000000e+000  5.000000e+001
      vertex  1.500001e+001 -3.000000e+000  4.855410e+001
      vertex  1.538269e+001 -3.000000e+000  4.847798e+001
    endloop
  endfacet
  facet normal  0.000000e+000 -1.000000e+000  0.000000e+000
    outer loop
      vertex  2.700000e+001 -3.000000e+000  5.000000e+001
      vertex  1.538269e+001 -3.000000e+000  4.847798e+001
      vertex  1.570712e+001 -3.000000e+000  4.826121e+001
    endloop
  endfacet
  facet normal  0.000000e+000 -1.000000e+000  0.000000e+000
    outer loop
      vertex  2.700000e+001 -3.000000e+000  5.000000e+001
      vertex  1.570712e+001 -3.000000e+000  4.826121e+001
      vertex  1.592389e+001 -3.000000e+000  4.793679e+001
    endloop
  endfacet
  facet normal  0.000000e+000 -1.000000e+000  0.000000e+000
    outer loop
      vertex  2.700000e+001 -3.000000e+000  5.000000e+001
      vertex  1.592389e+001 -3.000000e+000  4.793679e+001
      vertex  1.600001e+001 -3.000000e+000  4.755410e+001
    endloop
  endfacet
  facet normal  0.000000e+000 -1.000000e+000  -0.000000e+000
    outer loop
      vertex  2.700000e+001 -3.000000e+000  5.000000e+001
      vertex  1.600001e+001 -3.000000e+000  4.755410e+001
      vertex  1.592389e+001 -3.000000e+000  4.717142e+001
    endloop
  endfacet
  facet normal  0.000000e+000 -1.000000e+000  -0.000000e+000
    outer loop
      vertex  2.700000e+001 -3.000000e+000  5.000000e+001
      vertex  1.592389e+001 -3.000000e+000  4.717142e+001
      vertex  1.570712e+001 -3.000000e+000  4.684700e+001
    endloop
  endfacet
  facet normal  0.000000e+000 -1.000000e+000  -0.000000e+000
    outer loop
      vertex  2.700000e+001 -3.000000e+000  5.000000e+001
      vertex  1.570712e+001 -3.000000e+000  4.684700e+001
      vertex  1.538269e+001 -3.000000e+000  4.663022e+001
    endloop
  endfacet
  facet normal  0.000000e+000 -1.000000e+000  0.000000e+000
    outer loop
      vertex  1.800000e+001 -3.000000e+000  8.905410e+001
      vertex  1.500000e+001 -3.000000e+000  8.755410e+001
      vertex  1.538268e+001 -3.000000e+000  8.747798e+001
    endloop
  endfacet
  facet normal  0.000000e+000 -1.000000e+000  0.000000e+000
    outer loop
      vertex  1.800000e+001 -3.000000e+000  8.905410e+001
      vertex  1.538268e+001 -3.000000e+000  8.747798e+001
      vertex  1.570711e+001 -3.000000e+000  8.726121e+001
    endloop
  endfacet
  facet normal  0.000000e+000 -1.000000e+000  0.000000e+000
    outer loop
      vertex  1.800000e+001 -3.000000e+000  8.905410e+001
      vertex  1.570711e+001 -3.000000e+000  8.726121e+001
      vertex  1.592388e+001 -3.000000e+000  8.693679e+001
    endloop
  endfacet
  facet normal  0.000000e+000 -1.000000e+000  0.000000e+000
    outer loop
      vertex  1.800000e+001 -3.000000e+000  8.905410e+001
      vertex  1.592388e+001 -3.000000e+000  8.693679e+001
      vertex  1.600000e+001 -3.000000e+000  8.655410e+001
    endloop
  endfacet
  facet normal  0.000000e+000 -1.000000e+000  -0.000000e+000
    outer loop
      vertex  1.800000e+001 -3.000000e+000  8.905410e+001
      vertex  1.600000e+001 -3.000000e+000  8.655410e+001
      vertex  1.592388e+001 -3.000000e+000  8.617142e+001
    endloop
  endfacet
  facet normal  0.000000e+000 -1.000000e+000  -0.000000e+000
    outer loop
      vertex  1.800000e+001 -3.000000e+000  8.905410e+001
      vertex  1.592388e+001 -3.000000e+000  8.617142e+001
      vertex  1.570711e+001 -3.000000e+000  8.584700e+001
    endloop
  endfacet
  facet normal  0.000000e+000 -9.999999e-001  -0.000000e+000
    outer loop
      vertex  2.300000e+001 -3.000000e+000  8.405410e+001
      vertex  1.800000e+001 -3.000000e+000  8.905410e+001
      vertex  1.570711e+001 -3.000000e+000  8.584700e+001
    endloop
  endfacet
  facet normal  0.000000e+000 -1.000000e+000  -0.000000e+000
    outer loop
      vertex  2.300000e+001 -3.000000e+000  8.405410e+001
      vertex  1.570711e+001 -3.000000e+000  8.584700e+001
      vertex  1.538268e+001 -3.000000e+000  8.563023e+001
    endloop
  endfacet
  facet normal  0.000000e+000 -1.000000e+000  -0.000000e+000
    outer loop
      vertex  2.300000e+001 -3.000000e+000  8.405410e+001
      vertex  1.538268e+001 -3.000000e+000  8.563023e+001
      vertex  1.500000e+001 -3.000000e+000  8.555410e+001
    endloop
  endfacet
  facet normal  0.000000e+000  1.000000e+000 -2.254090e-015
    outer loop
      vertex  1.200000e+001  7.105427e-015  8.905410e+001
      vertex  1.800000e+001  7.105427e-015  8.905410e+001
      vertex  1.538268e+001  3.552714e-015  8.747798e+001
    endloop
  endfacet
  facet normal -7.823269e-016  1.000000e+000 -3.933129e-015
    outer loop
      vertex  1.200000e+001  7.105427e-015  8.905410e+001
      vertex  1.538268e+001  3.552714e-015  8.747798e+001
      vertex  1.500000e+001  3.552714e-015  8.755410e+001
    endloop
  endfacet
  facet normal  3.370308e-016  1.000000e+000 -1.694414e-015
    outer loop
      vertex  1.200000e+001  7.105427e-015  8.905410e+001
      vertex  1.500000e+001  3.552714e-015  8.755410e+001
      vertex  1.461732e+001  3.552714e-015  8.747798e+001
    endloop
  endfacet
  facet normal  5.801483e-016  1.000000e+000 -1.290691e-015
    outer loop
      vertex  1.200000e+001  7.105427e-015  8.905410e+001
      vertex  1.461732e+001  3.552714e-015  8.747798e+001
      vertex  7.000000e+000  3.552714e-015  8.405410e+001
    endloop
  endfacet
  facet normal  0.000000e+000  1.000000e+000  0.000000e+000
    outer loop
      vertex  7.000000e+000  3.552714e-015  8.405410e+001
      vertex  1.461732e+001  3.552714e-015  8.747798e+001
      vertex  1.429289e+001  3.552714e-015  8.726121e+001
    endloop
  endfacet
  facet normal  0.000000e+000  9.999999e-001  0.000000e+000
    outer loop
      vertex  7.000000e+000  3.552714e-015  8.405410e+001
      vertex  1.429289e+001  3.552714e-015  8.726121e+001
      vertex  1.407612e+001  3.552714e-015  8.693679e+001
    endloop
  endfacet
  facet normal  0.000000e+000  1.000000e+000  0.000000e+000
    outer loop
      vertex  7.000000e+000  3.552714e-015  8.405410e+001
      vertex  1.407612e+001  3.552714e-015  8.693679e+001
      vertex  1.400000e+001  3.552714e-015  8.655410e+001
    endloop
  endfacet
  facet normal  0.000000e+000  9.999999e-001  0.000000e+000
    outer loop
      vertex  7.000000e+000  3.552714e-015  8.405410e+001
      vertex  1.400000e+001  3.552714e-015  8.655410e+001
      vertex  1.407612e+001  3.552714e-015  8.617142e+001
    endloop
  endfacet
  facet normal  0.000000e+000  9.999999e-001  0.000000e+000
    outer loop
      vertex  7.000000e+000  3.552714e-015  8.405410e+001
      vertex  1.407612e+001  3.552714e-015  8.617142e+001
      vertex  1.429289e+001  3.552714e-015  8.584700e+001
    endloop
  endfacet
  facet normal  0.000000e+000  1.000000e+000  0.000000e+000
    outer loop
      vertex  7.000000e+000  3.552714e-015  8.405410e+001
      vertex  1.429289e+001  3.552714e-015  8.584700e+001
      vertex  1.461732e+001  3.552714e-015  8.563023e+001
    endloop
  endfacet
  facet normal  0.000000e+000  1.000000e+000  0.000000e+000
    outer loop
      vertex  7.000000e+000  3.552714e-015  8.405410e+001
      vertex  1.461732e+001  3.552714e-015  8.563023e+001
      vertex  1.500000e+001  3.552714e-015  8.555410e+001
    endloop
  endfacet
  facet normal  0.000000e+000  1.000000e+000  0.000000e+000
    outer loop
      vertex  7.000000e+000  3.552714e-015  8.405410e+001
      vertex  1.500000e+001  3.552714e-015  8.555410e+001
      vertex  1.500001e+001  3.552714e-015  4.855410e+001
    endloop
  endfacet
  facet normal  0.000000e+000  9.999999e-001  0.000000e+000
    outer loop
      vertex  7.000000e+000  3.552714e-015  8.405410e+001
      vertex  1.500001e+001  3.552714e-015  4.855410e+001
      vertex  0.000000e+000  3.552714e-015  6.251032e+001
    endloop
  endfacet
  facet normal  7.823799e-016  1.000000e+000 -1.556251e-016
    outer loop
      vertex  0.000000e+000  7.105427e-015 -3.552714e-015
      vertex  1.407613e+001  3.552714e-015  4.793679e+001
      vertex  1.400001e+001  3.552714e-015  4.755410e+001
    endloop
  endfacet
  facet normal  1.514428e-016  1.000000e+000  3.012386e-017
    outer loop
      vertex  0.000000e+000  7.105427e-015 -3.552714e-015
      vertex  1.400001e+001  3.552714e-015  4.755410e+001
      vertex  1.407613e+001  3.552714e-015  4.717142e+001
    endloop
  endfacet
  facet normal  7.791898e-017  1.000000e+000  5.206364e-017
    outer loop
      vertex  0.000000e+000  7.105427e-015 -3.552714e-015
      vertex  1.407613e+001  3.552714e-015  4.717142e+001
      vertex  1.429290e+001  3.552714e-015  4.684700e+001
    endloop
  endfacet
  facet normal  4.209183e-017  1.000000e+000  6.299442e-017
    outer loop
      vertex  0.000000e+000  7.105427e-015 -3.552714e-015
      vertex  1.429290e+001  3.552714e-015  4.684700e+001
      vertex  1.461733e+001  3.552714e-015  4.663022e+001
    endloop
  endfacet
  facet normal  1.426508e-017  1.000000e+000  7.171736e-017
    outer loop
      vertex  0.000000e+000  7.105427e-015 -3.552714e-015
      vertex  1.461733e+001  3.552714e-015  4.663022e+001
      vertex  1.500001e+001  3.552714e-015  4.655410e+001
    endloop
  endfacet
  facet normal  0.000000e+000  1.000000e+000  7.631366e-017
    outer loop
      vertex  0.000000e+000  7.105427e-015 -3.552714e-015
      vertex  1.500001e+001  3.552714e-015  4.655410e+001
      vertex  3.000000e+001  7.105427e-015 -3.552714e-015
    endloop
  endfacet
  facet normal  0.000000e+000  1.000000e+000  0.000000e+000
    outer loop
      vertex  0.000000e+000  3.552714e-015  6.251032e+001
      vertex  1.500001e+001  3.552714e-015  4.855410e+001
      vertex  1.461733e+001  3.552714e-015  4.847798e+001
    endloop
  endfacet
  facet normal  0.000000e+000  1.000000e+000  0.000000e+000
    outer loop
      vertex  0.000000e+000  3.552714e-015  6.251032e+001
      vertex  1.461733e+001  3.552714e-015  4.847798e+001
      vertex  1.429290e+001  3.552714e-015  4.826121e+001
    endloop
  endfacet
  facet normal  0.000000e+000  1.000000e+000  0.000000e+000
    outer loop
      vertex  0.000000e+000  3.552714e-015  6.251032e+001
      vertex  1.429290e+001  3.552714e-015  4.826121e+001
      vertex  1.407613e+001  3.552714e-015  4.793679e+001
    endloop
  endfacet
  facet normal  5.884235e-017  1.000000e+000  5.683403e-017
    outer loop
      vertex  0.000000e+000  3.552714e-015  6.251032e+001
      vertex  1.407613e+001  3.552714e-015  4.793679e+001
      vertex  0.000000e+000  7.105427e-015 -3.552714e-015
    endloop
  endfacet
  facet normal  0.000000e+000  1.000000e+000  0.000000e+000
    outer loop
      vertex  2.300000e+001  3.552714e-015  8.405410e+001
      vertex  3.000000e+001  3.552714e-015  6.251032e+001
      vertex  1.500001e+001  3.552714e-015  4.855410e+001
    endloop
  endfacet
  facet normal  0.000000e+000  1.000000e+000  -0.000000e+000
    outer loop
      vertex  2.300000e+001  3.552714e-015  8.405410e+001
      vertex  1.500001e+001  3.552714e-015  4.855410e+001
      vertex  1.500000e+001  3.552714e-015  8.555410e+001
    endloop
  endfacet
  facet normal  -0.000000e+000  1.000000e+000  0.000000e+000
    outer loop
      vertex  2.300000e+001  3.552714e-015  8.405410e+001
      vertex  1.500000e+001  3.552714e-015  8.555410e+001
      vertex  1.538268e+001  3.552714e-015  8.563023e+001
    endloop
  endfacet
  facet normal  -0.000000e+000  1.000000e+000  0.000000e+000
    outer loop
      vertex  2.300000e+001  3.552714e-015  8.405410e+001
      vertex  1.538268e+001  3.552714e-015  8.563023e+001
      vertex  1.570711e+001  3.552714e-015  8.584700e+001
    endloop
  endfacet
  facet normal  -0.000000e+000  9.999999e-001  0.000000e+000
    outer loop
      vertex  2.300000e+001  3.552714e-015  8.405410e+001
      vertex  1.570711e+001  3.552714e-015  8.584700e+001
      vertex  1.592388e+001  3.552714e-015  8.617142e+001
    endloop
  endfacet
  facet normal  -0.000000e+000  9.999999e-001  0.000000e+000
    outer loop
      vertex  2.300000e+001  3.552714e-015  8.405410e+001
      vertex  1.592388e+001  3.552714e-015  8.617142e+001
      vertex  1.600000e+001  3.552714e-015  8.655410e+001
    endloop
  endfacet
  facet normal  -0.000000e+000  1.000000e+000  -0.000000e+000
    outer loop
      vertex  2.300000e+001  3.552714e-015  8.405410e+001
      vertex  1.600000e+001  3.552714e-015  8.655410e+001
      vertex  1.592388e+001  3.552714e-015  8.693679e+001
    endloop
  endfacet
  facet normal  -0.000000e+000  9.999999e-001  -0.000000e+000
    outer loop
      vertex  2.300000e+001  3.552714e-015  8.405410e+001
      vertex  1.592388e+001  3.552714e-015  8.693679e+001
      vertex  1.570711e+001  3.552714e-015  8.726121e+001
    endloop
  endfacet
  facet normal  -0.000000e+000  1.000000e+000  -0.000000e+000
    outer loop
      vertex  2.300000e+001  3.552714e-015  8.405410e+001
      vertex  1.570711e+001  3.552714e-015  8.726121e+001
      vertex  1.538268e+001  3.552714e-015  8.747798e+001
    endloop
  endfacet
  facet normal -5.801483e-016  1.000000e+000 -1.290691e-015
    outer loop
      vertex  2.300000e+001  3.552714e-015  8.405410e+001
      vertex  1.538268e+001  3.552714e-015  8.747798e+001
      vertex  1.800000e+001  7.105427e-015  8.905410e+001
    endloop
  endfacet
  facet normal -1.426508e-017  1.000000e+000  7.171737e-017
    outer loop
      vertex  3.000000e+001  7.105427e-015 -3.552714e-015
      vertex  1.500001e+001  3.552714e-015  4.655410e+001
      vertex  1.538269e+001  3.552714e-015  4.663022e+001
    endloop
  endfacet
  facet normal -4.209184e-017  1.000000e+000  6.299444e-017
    outer loop
      vertex  3.000000e+001  7.105427e-015 -3.552714e-015
      vertex  1.538269e+001  3.552714e-015  4.663022e+001
      vertex  1.570712e+001  3.552714e-015  4.684700e+001
    endloop
  endfacet
  facet normal -7.791900e-017  9.999999e-001  5.206366e-017
    outer loop
      vertex  3.000000e+001  7.105427e-015 -3.552714e-015
      vertex  1.570712e+001  3.552714e-015  4.684700e+001
      vertex  1.592389e+001  3.552714e-015  4.717142e+001
    endloop
  endfacet
  facet normal -1.514429e-016  1.000000e+000  3.012388e-017
    outer loop
      vertex  3.000000e+001  7.105427e-015 -3.552714e-015
      vertex  1.592389e+001  3.552714e-015  4.717142e+001
      vertex  1.600001e+001  3.552714e-015  4.755410e+001
    endloop
  endfacet
  facet normal -7.823833e-016  9.999999e-001 -1.556258e-016
    outer loop
      vertex  3.000000e+001  7.105427e-015 -3.552714e-015
      vertex  1.600001e+001  3.552714e-015  4.755410e+001
      vertex  1.592389e+001  3.552714e-015  4.793679e+001
    endloop
  endfacet
  facet normal -5.884244e-017  1.000000e+000  5.683404e-017
    outer loop
      vertex  3.000000e+001  3.552714e-015  6.251032e+001
      vertex  3.000000e+001  7.105427e-015 -3.552714e-015
      vertex  1.592389e+001  3.552714e-015  4.793679e+001
    endloop
  endfacet
  facet normal  0.000000e+000  9.999999e-001  -0.000000e+000
    outer loop
      vertex  3.000000e+001  3.552714e-015  6.251032e+001
      vertex  1.592389e+001  3.552714e-015  4.793679e+001
      vertex  1.570712e+001  3.552714e-015  4.826121e+001
    endloop
  endfacet
  facet normal  0.000000e+000  9.999999e-001  -0.000000e+000
    outer loop
      vertex  3.000000e+001  3.552714e-015  6.251032e+001
      vertex  1.570712e+001  3.552714e-015  4.826121e+001
      vertex  1.538269e+001  3.552714e-015  4.847798e+001
    endloop
  endfacet
  facet normal  0.000000e+000  1.000000e+000  -0.000000e+000
    outer loop
      vertex  3.000000e+001  3.552714e-015  6.251032e+001
      vertex  1.538269e+001  3.552714e-015  4.847798e+001
      vertex  1.500001e+001  3.552714e-015  4.855410e+001
    endloop
  endfacet
  facet normal -1.950946e-001  -0.000000e+000 -9.807845e-001
    outer loop
      vertex  1.500001e+001 -3.000000e+000  4.855410e+001
      vertex  1.538269e+001  3.552714e-015  4.847798e+001
      vertex  1.538269e+001 -3.000000e+000  4.847798e+001
    endloop
  endfacet
  facet normal -5.555663e-001  0.000000e+000 -8.314722e-001
    outer loop
      vertex  1.538269e+001 -3.000000e+000  4.847798e+001
      vertex  1.538269e+001  3.552714e-015  4.847798e+001
      vertex  1.570712e+001  3.552714e-015  4.826121e+001
    endloop
  endfacet
  facet normal -5.555663e-001  -0.000000e+000 -8.314722e-001
    outer loop
      vertex  1.538269e+001 -3.000000e+000  4.847798e+001
      vertex  1.570712e+001  3.552714e-015  4.826121e+001
      vertex  1.570712e+001 -3.000000e+000  4.826121e+001
    endloop
  endfacet
  facet normal -8.314704e-001  0.000000e+000 -5.555691e-001
    outer loop
      vertex  1.570712e+001 -3.000000e+000  4.826121e+001
      vertex  1.570712e+001  3.552714e-015  4.826121e+001
      vertex  1.592389e+001  3.552714e-015  4.793679e+001
    endloop
  endfacet
  facet normal -8.314704e-001  -0.000000e+000 -5.555691e-001
    outer loop
      vertex  1.570712e+001 -3.000000e+000  4.826121e+001
      vertex  1.592389e+001  3.552714e-015  4.793679e+001
      vertex  1.592389e+001 -3.000000e+000  4.793679e+001
    endloop
  endfacet
  facet normal -9.807853e-001  0.000000e+000 -1.950904e-001
    outer loop
      vertex  1.592389e+001 -3.000000e+000  4.793679e+001
      vertex  1.592389e+001  3.552714e-015  4.793679e+001
      vertex  1.600001e+001  3.552714e-015  4.755410e+001
    endloop
  endfacet
  facet normal -9.807853e-001  -0.000000e+000 -1.950904e-001
    outer loop
      vertex  1.592389e+001 -3.000000e+000  4.793679e+001
      vertex  1.600001e+001  3.552714e-015  4.755410e+001
      vertex  1.600001e+001 -3.000000e+000  4.755410e+001
    endloop
  endfacet
  facet normal -1.950946e-001  0.000000e+000 -9.807845e-001
    outer loop
      vertex  1.538269e+001  3.552714e-015  4.847798e+001
      vertex  1.500001e+001 -3.000000e+000  4.855410e+001
      vertex  1.500001e+001  3.552714e-015  4.855410e+001
    endloop
  endfacet
  facet normal  1.950946e-001  0.000000e+000 -9.807845e-001
    outer loop
      vertex  1.500001e+001  3.552714e-015  4.855410e+001
      vertex  1.500001e+001 -3.000000e+000  4.855410e+001
      vertex  1.461733e+001 -3.000000e+000  4.847798e+001
    endloop
  endfacet
  facet normal  1.950946e-001  0.000000e+000 -9.807845e-001
    outer loop
      vertex  1.500001e+001  3.552714e-015  4.855410e+001
      vertex  1.461733e+001 -3.000000e+000  4.847798e+001
      vertex  1.461733e+001  3.552714e-015  4.847798e+001
    endloop
  endfacet
  facet normal  5.555663e-001  0.000000e+000 -8.314722e-001
    outer loop
      vertex  1.461733e+001  3.552714e-015  4.847798e+001
      vertex  1.461733e+001 -3.000000e+000  4.847798e+001
      vertex  1.429290e+001 -3.000000e+000  4.826121e+001
    endloop
  endfacet
  facet normal  5.555663e-001  0.000000e+000 -8.314722e-001
    outer loop
      vertex  1.461733e+001  3.552714e-015  4.847798e+001
      vertex  1.429290e+001 -3.000000e+000  4.826121e+001
      vertex  1.429290e+001  3.552714e-015  4.826121e+001
    endloop
  endfacet
  facet normal  8.314704e-001  0.000000e+000 -5.555691e-001
    outer loop
      vertex  1.429290e+001  3.552714e-015  4.826121e+001
      vertex  1.429290e+001 -3.000000e+000  4.826121e+001
      vertex  1.407613e+001 -3.000000e+000  4.793679e+001
    endloop
  endfacet
  facet normal  8.314704e-001  0.000000e+000 -5.555691e-001
    outer loop
      vertex  1.429290e+001  3.552714e-015  4.826121e+001
      vertex  1.407613e+001 -3.000000e+000  4.793679e+001
      vertex  1.407613e+001  3.552714e-015  4.793679e+001
    endloop
  endfacet
  facet normal  9.807853e-001  0.000000e+000 -1.950904e-001
    outer loop
      vertex  1.407613e+001  3.552714e-015  4.793679e+001
      vertex  1.407613e+001 -3.000000e+000  4.793679e+001
      vertex  1.400001e+001 -3.000000e+000  4.755410e+001
    endloop
  endfacet
  facet normal  9.807853e-001  0.000000e+000 -1.950904e-001
    outer loop
      vertex  1.407613e+001  3.552714e-015  4.793679e+001
      vertex  1.400001e+001 -3.000000e+000  4.755410e+001
      vertex  1.400001e+001  3.552714e-015  4.755410e+001
    endloop
  endfacet
  facet normal  1.950853e-001  0.000000e+000  9.807864e-001
    outer loop
      vertex  1.500001e+001 -3.000000e+000  4.655410e+001
      vertex  1.461733e+001  3.552714e-015  4.663022e+001
      vertex  1.461733e+001 -3.000000e+000  4.663022e+001
    endloop
  endfacet
  facet normal  5.555730e-001  -0.000000e+000  8.314677e-001
    outer loop
      vertex  1.461733e+001 -3.000000e+000  4.663022e+001
      vertex  1.461733e+001  3.552714e-015  4.663022e+001
      vertex  1.429290e+001  3.552714e-015  4.684700e+001
    endloop
  endfacet
  facet normal  5.555730e-001  0.000000e+000  8.314677e-001
    outer loop
      vertex  1.461733e+001 -3.000000e+000  4.663022e+001
      vertex  1.429290e+001  3.552714e-015  4.684700e+001
      vertex  1.429290e+001 -3.000000e+000  4.684700e+001
    endloop
  endfacet
  facet normal  8.314704e-001  -0.000000e+000  5.555691e-001
    outer loop
      vertex  1.429290e+001 -3.000000e+000  4.684700e+001
      vertex  1.429290e+001  3.552714e-015  4.684700e+001
      vertex  1.407613e+001  3.552714e-015  4.717142e+001
    endloop
  endfacet
  facet normal  8.314704e-001  0.000000e+000  5.555691e-001
    outer loop
      vertex  1.429290e+001 -3.000000e+000  4.684700e+001
      vertex  1.407613e+001  3.552714e-015  4.717142e+001
      vertex  1.407613e+001 -3.000000e+000  4.717142e+001
    endloop
  endfacet
  facet normal  9.807853e-001  -0.000000e+000  1.950904e-001
    outer loop
      vertex  1.407613e+001 -3.000000e+000  4.717142e+001
      vertex  1.407613e+001  3.552714e-015  4.717142e+001
      vertex  1.400001e+001  3.552714e-015  4.755410e+001
    endloop
  endfacet
  facet normal  9.807853e-001  0.000000e+000  1.950904e-001
    outer loop
      vertex  1.407613e+001 -3.000000e+000  4.717142e+001
      vertex  1.400001e+001  3.552714e-015  4.755410e+001
      vertex  1.400001e+001 -3.000000e+000  4.755410e+001
    endloop
  endfacet
  facet normal  1.950853e-001  -0.000000e+000  9.807864e-001
    outer loop
      vertex  1.461733e+001  3.552714e-015  4.663022e+001
      vertex  1.500001e+001 -3.000000e+000  4.655410e+001
      vertex  1.500001e+001  3.552714e-015  4.655410e+001
    endloop
  endfacet
  facet normal -1.950853e-001  0.000000e+000  9.807864e-001
    outer loop
      vertex  1.500001e+001  3.552714e-015  4.655410e+001
      vertex  1.500001e+001 -3.000000e+000  4.655410e+001
      vertex  1.538269e+001 -3.000000e+000  4.663022e+001
    endloop
  endfacet
  facet normal -1.950853e-001  0.000000e+000  9.807864e-001
    outer loop
      vertex  1.500001e+001  3.552714e-015  4.655410e+001
      vertex  1.538269e+001 -3.000000e+000  4.663022e+001
      vertex  1.538269e+001  3.552714e-015  4.663022e+001
    endloop
  endfacet
  facet normal -5.555730e-001  0.000000e+000  8.314677e-001
    outer loop
      vertex  1.538269e+001  3.552714e-015  4.663022e+001
      vertex  1.538269e+001 -3.000000e+000  4.663022e+001
      vertex  1.570712e+001 -3.000000e+000  4.684700e+001
    endloop
  endfacet
  facet normal -5.555730e-001  0.000000e+000  8.314677e-001
    outer loop
      vertex  1.538269e+001  3.552714e-015  4.663022e+001
      vertex  1.570712e+001 -3.000000e+000  4.684700e+001
      vertex  1.570712e+001  3.552714e-015  4.684700e+001
    endloop
  endfacet
  facet normal -8.314704e-001  0.000000e+000  5.555691e-001
    outer loop
      vertex  1.570712e+001  3.552714e-015  4.684700e+001
      vertex  1.570712e+001 -3.000000e+000  4.684700e+001
      vertex  1.592389e+001 -3.000000e+000  4.717142e+001
    endloop
  endfacet
  facet normal -8.314704e-001  0.000000e+000  5.555691e-001
    outer loop
      vertex  1.570712e+001  3.552714e-015  4.684700e+001
      vertex  1.592389e+001 -3.000000e+000  4.717142e+001
      vertex  1.592389e+001  3.552714e-015  4.717142e+001
    endloop
  endfacet
  facet normal -9.807853e-001  0.000000e+000  1.950904e-001
    outer loop
      vertex  1.592389e+001  3.552714e-015  4.717142e+001
      vertex  1.592389e+001 -3.000000e+000  4.717142e+001
      vertex  1.600001e+001 -3.000000e+000  4.755410e+001
    endloop
  endfacet
  facet normal -9.807853e-001  0.000000e+000  1.950904e-001
    outer loop
      vertex  1.592389e+001  3.552714e-015  4.717142e+001
      vertex  1.600001e+001 -3.000000e+000  4.755410e+001
      vertex  1.600001e+001  3.552714e-015  4.755410e+001
    endloop
  endfacet
  facet normal -1.950853e-001  -0.000000e+000 -9.807864e-001
    outer loop
      vertex  1.500000e+001 -3.000000e+000  8.755410e+001
      vertex  1.538268e+001  3.552714e-015  8.747798e+001
      vertex  1.538268e+001 -3.000000e+000  8.747798e+001
    endloop
  endfacet
  facet normal -5.555730e-001  0.000000e+000 -8.314677e-001
    outer loop
      vertex  1.538268e+001 -3.000000e+000  8.747798e+001
      vertex  1.538268e+001  3.552714e-015  8.747798e+001
      vertex  1.570711e+001  3.552714e-015  8.726121e+001
    endloop
  endfacet
  facet normal -5.555730e-001  -0.000000e+000 -8.314677e-001
    outer loop
      vertex  1.538268e+001 -3.000000e+000  8.747798e+001
      vertex  1.570711e+001  3.552714e-015  8.726121e+001
      vertex  1.570711e+001 -3.000000e+000  8.726121e+001
    endloop
  endfacet
  facet normal -8.314644e-001  0.000000e+000 -5.555781e-001
    outer loop
      vertex  1.570711e+001 -3.000000e+000  8.726121e+001
      vertex  1.570711e+001  3.552714e-015  8.726121e+001
      vertex  1.592388e+001  3.552714e-015  8.693679e+001
    endloop
  endfacet
  facet normal -8.314644e-001  -0.000000e+000 -5.555781e-001
    outer loop
      vertex  1.570711e+001 -3.000000e+000  8.726121e+001
      vertex  1.592388e+001  3.552714e-015  8.693679e+001
      vertex  1.592388e+001 -3.000000e+000  8.693679e+001
    endloop
  endfacet
  facet normal -9.807860e-001  0.000000e+000 -1.950867e-001
    outer loop
      vertex  1.592388e+001 -3.000000e+000  8.693679e+001
      vertex  1.592388e+001  3.552714e-015  8.693679e+001
      vertex  1.600000e+001  3.552714e-015  8.655410e+001
    endloop
  endfacet
  facet normal -9.807860e-001  -0.000000e+000 -1.950867e-001
    outer loop
      vertex  1.592388e+001 -3.000000e+000  8.693679e+001
      vertex  1.600000e+001  3.552714e-015  8.655410e+001
      vertex  1.600000e+001 -3.000000e+000  8.655410e+001
    endloop
  endfacet
  facet normal -1.950853e-001  0.000000e+000 -9.807864e-001
    outer loop
      vertex  1.538268e+001  3.552714e-015  8.747798e+001
      vertex  1.500000e+001 -3.000000e+000  8.755410e+001
      vertex  1.500000e+001  3.552714e-015  8.755410e+001
    endloop
  endfacet
  facet normal  1.950853e-001  0.000000e+000 -9.807864e-001
    outer loop
      vertex  1.500000e+001  3.552714e-015  8.755410e+001
      vertex  1.500000e+001 -3.000000e+000  8.755410e+001
      vertex  1.461732e+001 -3.000000e+000  8.747798e+001
    endloop
  endfacet
  facet normal  1.950853e-001  0.000000e+000 -9.807864e-001
    outer loop
      vertex  1.500000e+001  3.552714e-015  8.755410e+001
      vertex  1.461732e+001 -3.000000e+000  8.747798e+001
      vertex  1.461732e+001  3.552714e-015  8.747798e+001
    endloop
  endfacet
  facet normal  5.555730e-001  0.000000e+000 -8.314677e-001
    outer loop
      vertex  1.461732e+001  3.552714e-015  8.747798e+001
      vertex  1.461732e+001 -3.000000e+000  8.747798e+001
      vertex  1.429289e+001 -3.000000e+000  8.726121e+001
    endloop
  endfacet
  facet normal  5.555730e-001  0.000000e+000 -8.314677e-001
    outer loop
      vertex  1.461732e+001  3.552714e-015  8.747798e+001
      vertex  1.429289e+001 -3.000000e+000  8.726121e+001
      vertex  1.429289e+001  3.552714e-015  8.726121e+001
    endloop
  endfacet
  facet normal  8.314644e-001  0.000000e+000 -5.555781e-001
    outer loop
      vertex  1.429289e+001  3.552714e-015  8.726121e+001
      vertex  1.429289e+001 -3.000000e+000  8.726121e+001
      vertex  1.407612e+001 -3.000000e+000  8.693679e+001
    endloop
  endfacet
  facet normal  8.314644e-001  0.000000e+000 -5.555781e-001
    outer loop
      vertex  1.429289e+001  3.552714e-015  8.726121e+001
      vertex  1.407612e+001 -3.000000e+000  8.693679e+001
      vertex  1.407612e+001  3.552714e-015  8.693679e+001
    endloop
  endfacet
  facet normal  9.807860e-001  0.000000e+000 -1.950867e-001
    outer loop
      vertex  1.407612e+001  3.552714e-015  8.693679e+001
      vertex  1.407612e+001 -3.000000e+000  8.693679e+001
      vertex  1.400000e+001 -3.000000e+000  8.655410e+001
    endloop
  endfacet
  facet normal  9.807860e-001  0.000000e+000 -1.950867e-001
    outer loop
      vertex  1.407612e+001  3.552714e-015  8.693679e+001
      vertex  1.400000e+001 -3.000000e+000  8.655410e+001
      vertex  1.400000e+001  3.552714e-015  8.655410e+001
    endloop
  endfacet
  facet normal  1.951040e-001  0.000000e+000  9.807826e-001
    outer loop
      vertex  1.500000e+001 -3.000000e+000  8.555410e+001
      vertex  1.461732e+001  3.552714e-015  8.563023e+001
      vertex  1.461732e+001 -3.000000e+000  8.563023e+001
    endloop
  endfacet
  facet normal  5.555730e-001  -0.000000e+000  8.314677e-001
    outer loop
      vertex  1.461732e+001 -3.000000e+000  8.563023e+001
      vertex  1.461732e+001  3.552714e-015  8.563023e+001
      vertex  1.429289e+001  3.552714e-015  8.584700e+001
    endloop
  endfacet
  facet normal  5.555730e-001  0.000000e+000  8.314677e-001
    outer loop
      vertex  1.461732e+001 -3.000000e+000  8.563023e+001
      vertex  1.429289e+001  3.552714e-015  8.584700e+001
      vertex  1.429289e+001 -3.000000e+000  8.584700e+001
    endloop
  endfacet
  facet normal  8.314644e-001  -0.000000e+000  5.555781e-001
    outer loop
      vertex  1.429289e+001 -3.000000e+000  8.584700e+001
      vertex  1.429289e+001  3.552714e-015  8.584700e+001
      vertex  1.407612e+001  3.552714e-015  8.617142e+001
    endloop
  endfacet
  facet normal  8.314644e-001  0.000000e+000  5.555781e-001
    outer loop
      vertex  1.429289e+001 -3.000000e+000  8.584700e+001
      vertex  1.407612e+001  3.552714e-015  8.617142e+001
      vertex  1.407612e+001 -3.000000e+000  8.617142e+001
    endloop
  endfacet
  facet normal  9.807853e-001  -0.000000e+000  1.950904e-001
    outer loop
      vertex  1.407612e+001 -3.000000e+000  8.617142e+001
      vertex  1.407612e+001  3.552714e-015  8.617142e+001
      vertex  1.400000e+001  3.552714e-015  8.655410e+001
    endloop
  endfacet
  facet normal  9.807853e-001  0.000000e+000  1.950904e-001
    outer loop
      vertex  1.407612e+001 -3.000000e+000  8.617142e+001
      vertex  1.400000e+001  3.552714e-015  8.655410e+001
      vertex  1.400000e+001 -3.000000e+000  8.655410e+001
    endloop
  endfacet
  facet normal  1.951040e-001  -0.000000e+000  9.807826e-001
    outer loop
      vertex  1.461732e+001  3.552714e-015  8.563023e+001
      vertex  1.500000e+001 -3.000000e+000  8.555410e+001
      vertex  1.500000e+001  3.552714e-015  8.555410e+001
    endloop
  endfacet
  facet normal -1.951040e-001  0.000000e+000  9.807826e-001
    outer loop
      vertex  1.500000e+001  3.552714e-015  8.555410e+001
      vertex  1.500000e+001 -3.000000e+000  8.555410e+001
      vertex  1.538268e+001 -3.000000e+000  8.563023e+001
    endloop
  endfacet
  facet normal -1.951040e-001  0.000000e+000  9.807826e-001
    outer loop
      vertex  1.500000e+001  3.552714e-015  8.555410e+001
      vertex  1.538268e+001 -3.000000e+000  8.563023e+001
      vertex  1.538268e+001  3.552714e-015  8.563023e+001
    endloop
  endfacet
  facet normal -5.555730e-001  0.000000e+000  8.314677e-001
    outer loop
      vertex  1.538268e+001  3.552714e-015  8.563023e+001
      vertex  1.538268e+001 -3.000000e+000  8.563023e+001
      vertex  1.570711e+001 -3.000000e+000  8.584700e+001
    endloop
  endfacet
  facet normal -5.555730e-001  0.000000e+000  8.314677e-001
    outer loop
      vertex  1.538268e+001  3.552714e-015  8.563023e+001
      vertex  1.570711e+001 -3.000000e+000  8.584700e+001
      vertex  1.570711e+001  3.552714e-015  8.584700e+001
    endloop
  endfacet
  facet normal -8.314644e-001  0.000000e+000  5.555781e-001
    outer loop
      vertex  1.570711e+001  3.552714e-015  8.584700e+001
      vertex  1.570711e+001 -3.000000e+000  8.584700e+001
      vertex  1.592388e+001 -3.000000e+000  8.617142e+001
    endloop
  endfacet
  facet normal -8.314644e-001  0.000000e+000  5.555781e-001
    outer loop
      vertex  1.570711e+001  3.552714e-015  8.584700e+001
      vertex  1.592388e+001 -3.000000e+000  8.617142e+001
      vertex  1.592388e+001  3.552714e-015  8.617142e+001
    endloop
  endfacet
  facet normal -9.807853e-001  0.000000e+000  1.950904e-001
    outer loop
      vertex  1.592388e+001  3.552714e-015  8.617142e+001
      vertex  1.592388e+001 -3.000000e+000  8.617142e+001
      vertex  1.600000e+001 -3.000000e+000  8.655410e+001
    endloop
  endfacet
  facet normal -9.807853e-001  0.000000e+000  1.950904e-001
    outer loop
      vertex  1.592388e+001  3.552714e-015  8.617142e+001
      vertex  1.600000e+001 -3.000000e+000  8.655410e+001
      vertex  1.600000e+001  3.552714e-015  8.655410e+001
    endloop
  endfacet
  facet normal  0.000000e+000  0.000000e+000  1.000000e+000
    outer loop
      vertex  1.800000e+001 -3.000000e+000  8.905410e+001
      vertex  1.800000e+001  7.105427e-015  8.905410e+001
      vertex  1.200000e+001 -3.000000e+000  8.905410e+001
    endloop
  endfacet
  facet normal  0.000000e+000  0.000000e+000  1.000000e+000
    outer loop
      vertex  1.200000e+001 -3.000000e+000  8.905410e+001
      vertex  1.800000e+001  7.105427e-015  8.905410e+001
      vertex  1.200000e+001  7.105427e-015  8.905410e+001
    endloop
  endfacet
  facet normal -9.510565e-001  0.000000e+000  3.090170e-001
    outer loop
      vertex  7.000000e+000  3.552714e-015  8.405410e+001
      vertex  0.000000e+000  3.552714e-015  6.251032e+001
      vertex  7.000000e+000 -3.000000e+000  8.405410e+001
    endloop
  endfacet
  facet normal -9.510565e-001  0.000000e+000  3.090170e-001
    outer loop
      vertex  7.000000e+000 -3.000000e+000  8.405410e+001
      vertex  0.000000e+000  3.552714e-015  6.251032e+001
      vertex  0.000000e+000 -3.000000e+000  6.251032e+001
    endloop
  endfacet
  facet normal -7.071068e-001  0.000000e+000  7.071068e-001
    outer loop
      vertex  1.200000e+001  7.105427e-015  8.905410e+001
      vertex  7.000000e+000  3.552714e-015  8.405410e+001
      vertex  1.200000e+001 -3.000000e+000  8.905410e+001
    endloop
  endfacet
  facet normal -7.071068e-001  0.000000e+000  7.071068e-001
    outer loop
      vertex  1.200000e+001 -3.000000e+000  8.905410e+001
      vertex  7.000000e+000  3.552714e-015  8.405410e+001
      vertex  7.000000e+000 -3.000000e+000  8.405410e+001
    endloop
  endfacet
  facet normal  9.510565e-001  -0.000000e+000  3.090170e-001
    outer loop
      vertex  2.300000e+001  3.552714e-015  8.405410e+001
      vertex  2.300000e+001 -3.000000e+000  8.405410e+001
      vertex  3.000000e+001  3.552714e-015  6.251032e+001
    endloop
  endfacet
  facet normal  9.510565e-001  0.000000e+000  3.090170e-001
    outer loop
      vertex  3.000000e+001  3.552714e-015  6.251032e+001
      vertex  2.300000e+001 -3.000000e+000  8.405410e+001
      vertex  3.000000e+001 -3.000000e+000  6.251032e+001
    endloop
  endfacet
  facet normal  7.071068e-001  -0.000000e+000  7.071068e-001
    outer loop
      vertex  1.800000e+001  7.105427e-015  8.905410e+001
      vertex  1.800000e+001 -3.000000e+000  8.905410e+001
      vertex  2.300000e+001  3.552714e-015  8.405410e+001
    endloop
  endfacet
  facet normal  7.071068e-001  0.000000e+000  7.071068e-001
    outer loop
      vertex  2.300000e+001  3.552714e-015  8.405410e+001
      vertex  1.800000e+001 -3.000000e+000  8.905410e+001
      vertex  2.300000e+001 -3.000000e+000  8.405410e+001
    endloop
  endfacet
  facet normal -1.000000e+000  0.000000e+000  0.000000e+000
    outer loop
      vertex  0.000000e+000  3.552714e-015  6.251032e+001
      vertex  0.000000e+000  7.105427e-015 -3.552714e-015
      vertex  0.000000e+000 -3.000000e+000  6.251032e+001
    endloop
  endfacet
  facet normal -1.000000e+000  0.000000e+000  0.000000e+000
    outer loop
      vertex  0.000000e+000 -3.000000e+000  6.251032e+001
      vertex  0.000000e+000  7.105427e-015 -3.552714e-015
      vertex  0.000000e+000 -3.000000e+000  5.000000e+001
    endloop
  endfacet
  facet normal -1.000000e+000  0.000000e+000  0.000000e+000
    outer loop
      vertex  0.000000e+000  7.105427e-015 -3.552714e-015
      vertex  0.000000e+000 -1.300000e+001  0.000000e+000
      vertex  0.000000e+000 -3.000000e+000  5.000000e+001
    endloop
  endfacet
  facet normal -1.000000e+000  0.000000e+000  0.000000e+000
    outer loop
      vertex  0.000000e+000 -3.000000e+000  5.000000e+001
      vertex  0.000000e+000 -1.300000e+001  0.000000e+000
      vertex  0.000000e+000 -1.300000e+001  4.000000e+001
    endloop
  endfacet
  facet normal  1.000000e+000  -0.000000e+000  0.000000e+000
    outer loop
      vertex  3.000000e+001  3.552714e-015  6.251032e+001
      vertex  3.000000e+001 -3.000000e+000  6.251032e+001
      vertex  3.000000e+001  7.105427e-015 -3.552714e-015
    endloop
  endfacet
  facet normal  1.000000e+000  0.000000e+000  0.000000e+000
    outer loop
      vertex  3.000000e+001  7.105427e-015 -3.552714e-015
      vertex  3.000000e+001 -3.000000e+000  6.251032e+001
      vertex  3.000000e+001 -3.000000e+000  5.000000e+001
    endloop
  endfacet
  facet normal  1.000000e+000  0.000000e+000  0.000000e+000
    outer loop
      vertex  3.000000e+001  7.105427e-015 -3.552714e-015
      vertex  3.000000e+001 -3.000000e+000  5.000000e+001
      vertex  3.000000e+001 -1.300000e+001  0.000000e+000
    endloop
  endfacet
  facet normal  1.000000e+000  0.000000e+000  0.000000e+000
    outer loop
      vertex  3.000000e+001 -1.300000e+001  0.000000e+000
      vertex  3.000000e+001 -3.000000e+000  5.000000e+001
      vertex  3.000000e+001 -1.300000e+001  4.000000e+001
    endloop
  endfacet
  facet normal  0.000000e+000 -7.071068e-001  7.071068e-001
    outer loop
      vertex  3.000000e+001 -3.000000e+000  5.000000e+001
      vertex  2.700000e+001 -3.000000e+000  5.000000e+001
      vertex  3.000000e+001 -1.300000e+001  4.000000e+001
    endloop
  endfacet
  facet normal  0.000000e+000 -7.071068e-001  7.071068e-001
    outer loop
      vertex  3.000000e+001 -1.300000e+001  4.000000e+001
      vertex  2.700000e+001 -3.000000e+000  5.000000e+001
      vertex  2.700000e+001 -1.300000e+001  4.000000e+001
    endloop
  endfacet
  facet normal  0.000000e+000 -7.071068e-001  7.071068e-001
    outer loop
      vertex  3.000000e+000 -3.000000e+000  5.000000e+001
      vertex  0.000000e+000 -3.000000e+000  5.000000e+001
      vertex  3.000000e+000 -1.300000e+001  4.000000e+001
    endloop
  endfacet
  facet normal  0.000000e+000 -7.071068e-001  7.071068e-001
    outer loop
      vertex  3.000000e+000 -1.300000e+001  4.000000e+001
      vertex  0.000000e+000 -3.000000e+000  5.000000e+001
      vertex  0.000000e+000 -1.300000e+001  4.000000e+001
    endloop
  endfacet
  facet normal  0.000000e+000 -2.732857e-016 -1.000000e+000
    outer loop
      vertex  3.000000e+001 -1.300000e+001  0.000000e+000
      vertex  2.700000e+001 -1.300000e+001  0.000000e+000
      vertex  3.000000e+001  7.105427e-015 -3.552714e-015
    endloop
  endfacet
  facet normal  3.552714e-016 -3.552714e-016 -1.000000e+000
    outer loop
      vertex  3.000000e+001  7.105427e-015 -3.552714e-015
      vertex  2.700000e+001 -1.300000e+001  0.000000e+000
      vertex  2.700000e+001 -3.000000e+000 -3.552714e-015
    endloop
  endfacet
  facet normal  0.000000e+000  0.000000e+000 -1.000000e+000
    outer loop
      vertex  3.000000e+001  7.105427e-015 -3.552714e-015
      vertex  2.700000e+001 -3.000000e+000 -3.552714e-015
      vertex  0.000000e+000  7.105427e-015 -3.552714e-015
    endloop
  endfacet
  facet normal  0.000000e+000  0.000000e+000 -1.000000e+000
    outer loop
      vertex  0.000000e+000  7.105427e-015 -3.552714e-015
      vertex  2.700000e+001 -3.000000e+000 -3.552714e-015
      vertex  3.000000e+000 -3.000000e+000 -3.552714e-015
    endloop
  endfacet
  facet normal -2.732857e-016 -2.732857e-016 -1.000000e+000
    outer loop
      vertex  0.000000e+000  7.105427e-015 -3.552714e-015
      vertex  3.000000e+000 -3.000000e+000 -3.552714e-015
      vertex  0.000000e+000 -1.300000e+001  0.000000e+000
    endloop
  endfacet
  facet normal  0.000000e+000 -3.552714e-016 -1.000000e+000
    outer loop
      vertex  0.000000e+000 -1.300000e+001  0.000000e+000
      vertex  3.000000e+000 -3.000000e+000 -3.552714e-015
      vertex  3.000000e+000 -1.300000e+001  0.000000e+000
    endloop
  endfacet
  facet normal  1.000000e+000  0.000000e+000  0.000000e+000
    outer loop
      vertex  3.000000e+000 -1.300000e+001  0.000000e+000
      vertex  3.000000e+000 -3.000000e+000 -3.552714e-015
      vertex  3.000000e+000 -1.300000e+001  4.000000e+001
    endloop
  endfacet
  facet normal  1.000000e+000  -0.000000e+000  0.000000e+000
    outer loop
      vertex  3.000000e+000 -1.300000e+001  4.000000e+001
      vertex  3.000000e+000 -3.000000e+000 -3.552714e-015
      vertex  3.000000e+000 -3.000000e+000  5.000000e+001
    endloop
  endfacet
  facet normal -1.000000e+000  0.000000e+000  0.000000e+000
    outer loop
      vertex  2.700000e+001 -3.000000e+000 -3.552714e-015
      vertex  2.700000e+001 -1.300000e+001  0.000000e+000
      vertex  2.700000e+001 -3.000000e+000  5.000000e+001
    endloop
  endfacet
  facet normal -1.000000e+000  0.000000e+000  0.000000e+000
    outer loop
      vertex  2.700000e+001 -3.000000e+000  5.000000e+001
      vertex  2.700000e+001 -1.300000e+001  0.000000e+000
      vertex  2.700000e+001 -1.300000e+001  4.000000e+001
    endloop
  endfacet
  facet normal  0.000000e+000 -1.000000e+000  0.000000e+000
    outer loop
      vertex  0.000000e+000 -1.300000e+001  4.000000e+001
      vertex  0.000000e+000 -1.300000e+001  0.000000e+000
      vertex  3.000000e+000 -1.300000e+001  4.000000e+001
    endloop
  endfacet
  facet normal  0.000000e+000 -1.000000e+000  -0.000000e+000
    outer loop
      vertex  3.000000e+000 -1.300000e+001  4.000000e+001
      vertex  0.000000e+000 -1.300000e+001  0.000000e+000
      vertex  3.000000e+000 -1.300000e+001  0.000000e+000
    endloop
  endfacet
  facet normal  0.000000e+000 -1.000000e+000  0.000000e+000
    outer loop
      vertex  2.700000e+001 -1.300000e+001  4.000000e+001
      vertex  2.700000e+001 -1.300000e+001  0.000000e+000
      vertex  3.000000e+001 -1.300000e+001  4.000000e+001
    endloop
  endfacet
  facet normal  0.000000e+000 -1.000000e+000  -0.000000e+000
    outer loop
      vertex  3.000000e+001 -1.300000e+001  4.000000e+001
      vertex  2.700000e+001 -1.300000e+001  0.000000e+000
      vertex  3.000000e+001 -1.300000e+001  0.000000e+000
    endloop
  endfacet
endsolid CATIA STL
