solid CATIA STL
  facet normal -1.000000e+000  0.000000e+000  0.000000e+000
    outer loop
      vertex -3.000000e+000 -7.310454e+000 -2.966579e+000
      vertex -3.000000e+000 -7.310454e+000 -8.966579e+000
      vertex -3.000000e+000 -9.603347e+000 -5.759473e+000
    endloop
  endfacet
  facet normal -9.999999e-001  0.000000e+000  0.000000e+000
    outer loop
      vertex -3.000000e+000 -7.310454e+000 -2.966579e+000
      vertex -3.000000e+000 -9.603347e+000 -5.759473e+000
      vertex -3.000000e+000 -9.927771e+000 -5.542700e+000
    endloop
  endfacet
  facet normal -1.000000e+000  0.000000e+000  0.000000e+000
    outer loop
      vertex -3.000000e+000 -7.310454e+000 -2.966579e+000
      vertex -3.000000e+000 -9.927771e+000 -5.542700e+000
      vertex -3.000000e+000 -1.031045e+001 -5.466579e+000
    endloop
  endfacet
  facet normal -1.000000e+000  0.000000e+000  0.000000e+000
    outer loop
      vertex -3.000000e+000 -7.310454e+000 -2.966579e+000
      vertex -3.000000e+000 -1.031045e+001 -5.466579e+000
      vertex -3.000000e+000 -1.331045e+001 -2.966579e+000
    endloop
  endfacet
  facet normal -1.000000e+000  0.000000e+000  0.000000e+000
    outer loop
      vertex -3.000000e+000 -7.310454e+000 -8.966579e+000
      vertex -3.000000e+000 -1.331045e+001 -8.966579e+000
      vertex -3.000000e+000 -1.031045e+001 -7.466579e+000
    endloop
  endfacet
  facet normal -1.000000e+000  0.000000e+000  0.000000e+000
    outer loop
      vertex -3.000000e+000 -7.310454e+000 -8.966579e+000
      vertex -3.000000e+000 -1.031045e+001 -7.466579e+000
      vertex -3.000000e+000 -9.927771e+000 -7.390459e+000
    endloop
  endfacet
  facet normal -1.000000e+000  0.000000e+000  0.000000e+000
    outer loop
      vertex -3.000000e+000 -7.310454e+000 -8.966579e+000
      vertex -3.000000e+000 -9.927771e+000 -7.390459e+000
      vertex -3.000000e+000 -9.603347e+000 -7.173686e+000
    endloop
  endfacet
  facet normal -1.000000e+000  0.000000e+000  0.000000e+000
    outer loop
      vertex -3.000000e+000 -7.310454e+000 -8.966579e+000
      vertex -3.000000e+000 -9.603347e+000 -7.173686e+000
      vertex -3.000000e+000 -9.386575e+000 -6.849263e+000
    endloop
  endfacet
  facet normal -1.000000e+000  0.000000e+000  0.000000e+000
    outer loop
      vertex -3.000000e+000 -7.310454e+000 -8.966579e+000
      vertex -3.000000e+000 -9.386575e+000 -6.849263e+000
      vertex -3.000000e+000 -9.310454e+000 -6.466579e+000
    endloop
  endfacet
  facet normal -1.000000e+000  0.000000e+000  0.000000e+000
    outer loop
      vertex -3.000000e+000 -7.310454e+000 -8.966579e+000
      vertex -3.000000e+000 -9.310454e+000 -6.466579e+000
      vertex -3.000000e+000 -9.386575e+000 -6.083896e+000
    endloop
  endfacet
  facet normal -1.000000e+000  0.000000e+000  0.000000e+000
    outer loop
      vertex -3.000000e+000 -7.310454e+000 -8.966579e+000
      vertex -3.000000e+000 -9.386575e+000 -6.083896e+000
      vertex -3.000000e+000 -9.603347e+000 -5.759473e+000
    endloop
  endfacet
  facet normal -1.000000e+000  0.000000e+000  0.000000e+000
    outer loop
      vertex -3.000000e+000 -1.331045e+001 -8.966579e+000
      vertex -3.000000e+000 -1.101756e+001 -5.759473e+000
      vertex -3.000000e+000 -1.123433e+001 -6.083896e+000
    endloop
  endfacet
  facet normal -1.000000e+000  0.000000e+000  0.000000e+000
    outer loop
      vertex -3.000000e+000 -1.331045e+001 -8.966579e+000
      vertex -3.000000e+000 -1.123433e+001 -6.083896e+000
      vertex -3.000000e+000 -1.131045e+001 -6.466579e+000
    endloop
  endfacet
  facet normal -1.000000e+000  0.000000e+000  -0.000000e+000
    outer loop
      vertex -3.000000e+000 -1.331045e+001 -8.966579e+000
      vertex -3.000000e+000 -1.131045e+001 -6.466579e+000
      vertex -3.000000e+000 -1.123433e+001 -6.849263e+000
    endloop
  endfacet
  facet normal -1.000000e+000  0.000000e+000  -0.000000e+000
    outer loop
      vertex -3.000000e+000 -1.331045e+001 -8.966579e+000
      vertex -3.000000e+000 -1.123433e+001 -6.849263e+000
      vertex -3.000000e+000 -1.101756e+001 -7.173686e+000
    endloop
  endfacet
  facet normal -1.000000e+000  0.000000e+000  -0.000000e+000
    outer loop
      vertex -3.000000e+000 -1.331045e+001 -8.966579e+000
      vertex -3.000000e+000 -1.101756e+001 -7.173686e+000
      vertex -3.000000e+000 -1.069314e+001 -7.390459e+000
    endloop
  endfacet
  facet normal -1.000000e+000  0.000000e+000  -0.000000e+000
    outer loop
      vertex -3.000000e+000 -1.331045e+001 -8.966579e+000
      vertex -3.000000e+000 -1.069314e+001 -7.390459e+000
      vertex -3.000000e+000 -1.031045e+001 -7.466579e+000
    endloop
  endfacet
  facet normal -1.000000e+000  -0.000000e+000  0.000000e+000
    outer loop
      vertex -3.000000e+000 -1.331045e+001 -2.966579e+000
      vertex -3.000000e+000 -1.031045e+001 -5.466579e+000
      vertex -3.000000e+000 -1.069314e+001 -5.542700e+000
    endloop
  endfacet
  facet normal -1.000000e+000  -0.000000e+000  0.000000e+000
    outer loop
      vertex -3.000000e+000 -1.331045e+001 -2.966579e+000
      vertex -3.000000e+000 -1.069314e+001 -5.542700e+000
      vertex -3.000000e+000 -1.101756e+001 -5.759473e+000
    endloop
  endfacet
  facet normal -1.000000e+000  -0.000000e+000  0.000000e+000
    outer loop
      vertex -3.000000e+000 -1.331045e+001 -2.966579e+000
      vertex -3.000000e+000 -1.101756e+001 -5.759473e+000
      vertex -3.000000e+000 -1.331045e+001 -8.966579e+000
    endloop
  endfacet
  facet normal -1.000000e+000  0.000000e+000  0.000000e+000
    outer loop
      vertex -3.000000e+000  2.268955e+001  1.253342e+001
      vertex -3.000000e+000  2.268955e+001  6.533421e+000
      vertex -3.000000e+000  2.061343e+001  9.916104e+000
    endloop
  endfacet
  facet normal -1.000000e+000  0.000000e+000  0.000000e+000
    outer loop
      vertex -3.000000e+000  2.268955e+001  1.253342e+001
      vertex -3.000000e+000  2.061343e+001  9.916104e+000
      vertex -3.000000e+000  2.039665e+001  1.024053e+001
    endloop
  endfacet
  facet normal -1.000000e+000  0.000000e+000  0.000000e+000
    outer loop
      vertex -3.000000e+000  2.268955e+001  1.253342e+001
      vertex -3.000000e+000  2.039665e+001  1.024053e+001
      vertex -3.000000e+000  2.007223e+001  1.045730e+001
    endloop
  endfacet
  facet normal -1.000000e+000  0.000000e+000  0.000000e+000
    outer loop
      vertex -3.000000e+000  2.268955e+001  1.253342e+001
      vertex -3.000000e+000  2.007223e+001  1.045730e+001
      vertex -3.000000e+000  1.968955e+001  1.053342e+001
    endloop
  endfacet
  facet normal -1.000000e+000  0.000000e+000  0.000000e+000
    outer loop
      vertex -3.000000e+000  2.268955e+001  1.253342e+001
      vertex -3.000000e+000  1.968955e+001  1.053342e+001
      vertex -3.000000e+000  1.668955e+001  1.253342e+001
    endloop
  endfacet
  facet normal -1.000000e+000  0.000000e+000  0.000000e+000
    outer loop
      vertex -3.000000e+000  2.268955e+001  6.533421e+000
      vertex -3.000000e+000  1.668955e+001  6.533421e+000
      vertex -3.000000e+000  1.968955e+001  8.533421e+000
    endloop
  endfacet
  facet normal -1.000000e+000  0.000000e+000  0.000000e+000
    outer loop
      vertex -3.000000e+000  2.268955e+001  6.533421e+000
      vertex -3.000000e+000  1.968955e+001  8.533421e+000
      vertex -3.000000e+000  2.007223e+001  8.609541e+000
    endloop
  endfacet
  facet normal -1.000000e+000  0.000000e+000  0.000000e+000
    outer loop
      vertex -3.000000e+000  2.268955e+001  6.533421e+000
      vertex -3.000000e+000  2.007223e+001  8.609541e+000
      vertex -3.000000e+000  2.039665e+001  8.826314e+000
    endloop
  endfacet
  facet normal -1.000000e+000  0.000000e+000  0.000000e+000
    outer loop
      vertex -3.000000e+000  2.268955e+001  6.533421e+000
      vertex -3.000000e+000  2.039665e+001  8.826314e+000
      vertex -3.000000e+000  2.061343e+001  9.150737e+000
    endloop
  endfacet
  facet normal -1.000000e+000  0.000000e+000  0.000000e+000
    outer loop
      vertex -3.000000e+000  2.268955e+001  6.533421e+000
      vertex -3.000000e+000  2.061343e+001  9.150737e+000
      vertex -3.000000e+000  2.068955e+001  9.533421e+000
    endloop
  endfacet
  facet normal -1.000000e+000  0.000000e+000  0.000000e+000
    outer loop
      vertex -3.000000e+000  2.268955e+001  6.533421e+000
      vertex -3.000000e+000  2.068955e+001  9.533421e+000
      vertex -3.000000e+000  2.061343e+001  9.916104e+000
    endloop
  endfacet
  facet normal -1.000000e+000  0.000000e+000  0.000000e+000
    outer loop
      vertex -3.000000e+000  1.668955e+001  6.533421e+000
      vertex -3.000000e+000  1.876567e+001  9.916104e+000
      vertex -3.000000e+000  1.868955e+001  9.533421e+000
    endloop
  endfacet
  facet normal -1.000000e+000  0.000000e+000  -0.000000e+000
    outer loop
      vertex -3.000000e+000  1.668955e+001  6.533421e+000
      vertex -3.000000e+000  1.868955e+001  9.533421e+000
      vertex -3.000000e+000  1.876567e+001  9.150737e+000
    endloop
  endfacet
  facet normal -1.000000e+000  0.000000e+000  -0.000000e+000
    outer loop
      vertex -3.000000e+000  1.668955e+001  6.533421e+000
      vertex -3.000000e+000  1.876567e+001  9.150737e+000
      vertex -3.000000e+000  1.898244e+001  8.826314e+000
    endloop
  endfacet
  facet normal -1.000000e+000  0.000000e+000  -0.000000e+000
    outer loop
      vertex -3.000000e+000  1.668955e+001  6.533421e+000
      vertex -3.000000e+000  1.898244e+001  8.826314e+000
      vertex -3.000000e+000  1.930686e+001  8.609541e+000
    endloop
  endfacet
  facet normal -1.000000e+000  0.000000e+000  -0.000000e+000
    outer loop
      vertex -3.000000e+000  1.668955e+001  6.533421e+000
      vertex -3.000000e+000  1.930686e+001  8.609541e+000
      vertex -3.000000e+000  1.968955e+001  8.533421e+000
    endloop
  endfacet
  facet normal -1.000000e+000  -0.000000e+000  0.000000e+000
    outer loop
      vertex -3.000000e+000  1.668955e+001  1.253342e+001
      vertex -3.000000e+000  1.968955e+001  1.053342e+001
      vertex -3.000000e+000  1.930686e+001  1.045730e+001
    endloop
  endfacet
  facet normal -1.000000e+000  -0.000000e+000  0.000000e+000
    outer loop
      vertex -3.000000e+000  1.668955e+001  1.253342e+001
      vertex -3.000000e+000  1.930686e+001  1.045730e+001
      vertex -3.000000e+000  1.898244e+001  1.024053e+001
    endloop
  endfacet
  facet normal -1.000000e+000  -0.000000e+000  0.000000e+000
    outer loop
      vertex -3.000000e+000  1.668955e+001  1.253342e+001
      vertex -3.000000e+000  1.898244e+001  1.024053e+001
      vertex -3.000000e+000  1.876567e+001  9.916104e+000
    endloop
  endfacet
  facet normal -1.000000e+000  -0.000000e+000  0.000000e+000
    outer loop
      vertex -3.000000e+000  1.668955e+001  1.253342e+001
      vertex -3.000000e+000  1.876567e+001  9.916104e+000
      vertex -3.000000e+000  1.668955e+001  6.533421e+000
    endloop
  endfacet
  facet normal  0.000000e+000  1.000000e+000  0.000000e+000
    outer loop
      vertex  0.000000e+000  2.268955e+001 -1.966579e+000
      vertex  0.000000e+000  2.268955e+001  6.533421e+000
      vertex  2.000000e+000  2.268955e+001 -1.966579e+000
    endloop
  endfacet
  facet normal  0.000000e+000  1.000000e+000  -0.000000e+000
    outer loop
      vertex  2.000000e+000  2.268955e+001 -1.966579e+000
      vertex  0.000000e+000  2.268955e+001  6.533421e+000
      vertex  2.000000e+000  2.268955e+001  1.253342e+001
    endloop
  endfacet
  facet normal  0.000000e+000  1.000000e+000  0.000000e+000
    outer loop
      vertex  0.000000e+000  2.268955e+001  6.533421e+000
      vertex -3.000000e+000  2.268955e+001  6.533421e+000
      vertex  2.000000e+000  2.268955e+001  1.253342e+001
    endloop
  endfacet
  facet normal  0.000000e+000  1.000000e+000  0.000000e+000
    outer loop
      vertex  2.000000e+000  2.268955e+001  1.253342e+001
      vertex -3.000000e+000  2.268955e+001  6.533421e+000
      vertex -3.000000e+000  2.268955e+001  1.253342e+001
    endloop
  endfacet
  facet normal  0.000000e+000  0.000000e+000  1.000000e+000
    outer loop
      vertex  2.000000e+000  1.668955e+001  1.253342e+001
      vertex  2.000000e+000  2.268955e+001  1.253342e+001
      vertex -3.000000e+000  1.668955e+001  1.253342e+001
    endloop
  endfacet
  facet normal  0.000000e+000  0.000000e+000  1.000000e+000
    outer loop
      vertex -3.000000e+000  1.668955e+001  1.253342e+001
      vertex  2.000000e+000  2.268955e+001  1.253342e+001
      vertex -3.000000e+000  2.268955e+001  1.253342e+001
    endloop
  endfacet
  facet normal  0.000000e+000 -1.000000e+000  -0.000000e+000
    outer loop
      vertex  2.000000e+000  1.668955e+001  3.033421e+000
      vertex  2.000000e+000  1.668955e+001  1.253342e+001
      vertex  0.000000e+000  1.668955e+001  3.033421e+000
    endloop
  endfacet
  facet normal  0.000000e+000 -1.000000e+000  0.000000e+000
    outer loop
      vertex  0.000000e+000  1.668955e+001  3.033421e+000
      vertex  2.000000e+000  1.668955e+001  1.253342e+001
      vertex  0.000000e+000  1.668955e+001  6.533421e+000
    endloop
  endfacet
  facet normal  0.000000e+000 -1.000000e+000  0.000000e+000
    outer loop
      vertex  2.000000e+000  1.668955e+001  1.253342e+001
      vertex -3.000000e+000  1.668955e+001  1.253342e+001
      vertex  0.000000e+000  1.668955e+001  6.533421e+000
    endloop
  endfacet
  facet normal  0.000000e+000 -1.000000e+000  0.000000e+000
    outer loop
      vertex  0.000000e+000  1.668955e+001  6.533421e+000
      vertex -3.000000e+000  1.668955e+001  1.253342e+001
      vertex -3.000000e+000  1.668955e+001  6.533421e+000
    endloop
  endfacet
  facet normal  -0.000000e+000  1.950895e-001  9.807854e-001
    outer loop
      vertex  2.000000e+000  1.968955e+001  8.533421e+000
      vertex -3.000000e+000  1.930686e+001  8.609541e+000
      vertex  2.000000e+000  1.930686e+001  8.609541e+000
    endloop
  endfacet
  facet normal  0.000000e+000  5.555713e-001  8.314689e-001
    outer loop
      vertex  2.000000e+000  1.930686e+001  8.609541e+000
      vertex -3.000000e+000  1.930686e+001  8.609541e+000
      vertex -3.000000e+000  1.898244e+001  8.826314e+000
    endloop
  endfacet
  facet normal  -0.000000e+000  5.555713e-001  8.314689e-001
    outer loop
      vertex  2.000000e+000  1.930686e+001  8.609541e+000
      vertex -3.000000e+000  1.898244e+001  8.826314e+000
      vertex  2.000000e+000  1.898244e+001  8.826314e+000
    endloop
  endfacet
  facet normal  0.000000e+000  8.314700e-001  5.555696e-001
    outer loop
      vertex  2.000000e+000  1.898244e+001  8.826314e+000
      vertex -3.000000e+000  1.898244e+001  8.826314e+000
      vertex -3.000000e+000  1.876567e+001  9.150737e+000
    endloop
  endfacet
  facet normal  -0.000000e+000  8.314700e-001  5.555696e-001
    outer loop
      vertex  2.000000e+000  1.898244e+001  8.826314e+000
      vertex -3.000000e+000  1.876567e+001  9.150737e+000
      vertex  2.000000e+000  1.876567e+001  9.150737e+000
    endloop
  endfacet
  facet normal  0.000000e+000  9.807854e-001  1.950900e-001
    outer loop
      vertex  2.000000e+000  1.876567e+001  9.150737e+000
      vertex -3.000000e+000  1.876567e+001  9.150737e+000
      vertex -3.000000e+000  1.868955e+001  9.533421e+000
    endloop
  endfacet
  facet normal  -0.000000e+000  9.807854e-001  1.950900e-001
    outer loop
      vertex  2.000000e+000  1.876567e+001  9.150737e+000
      vertex -3.000000e+000  1.868955e+001  9.533421e+000
      vertex  2.000000e+000  1.868955e+001  9.533421e+000
    endloop
  endfacet
  facet normal  0.000000e+000  1.950895e-001  9.807854e-001
    outer loop
      vertex -3.000000e+000  1.930686e+001  8.609541e+000
      vertex  2.000000e+000  1.968955e+001  8.533421e+000
      vertex -3.000000e+000  1.968955e+001  8.533421e+000
    endloop
  endfacet
  facet normal  0.000000e+000 -1.950904e-001  9.807853e-001
    outer loop
      vertex -3.000000e+000  1.968955e+001  8.533421e+000
      vertex  2.000000e+000  1.968955e+001  8.533421e+000
      vertex  2.000000e+000  2.007223e+001  8.609541e+000
    endloop
  endfacet
  facet normal  0.000000e+000 -1.950904e-001  9.807853e-001
    outer loop
      vertex -3.000000e+000  1.968955e+001  8.533421e+000
      vertex  2.000000e+000  2.007223e+001  8.609541e+000
      vertex -3.000000e+000  2.007223e+001  8.609541e+000
    endloop
  endfacet
  facet normal  0.000000e+000 -5.555713e-001  8.314689e-001
    outer loop
      vertex -3.000000e+000  2.007223e+001  8.609541e+000
      vertex  2.000000e+000  2.007223e+001  8.609541e+000
      vertex  2.000000e+000  2.039665e+001  8.826314e+000
    endloop
  endfacet
  facet normal  0.000000e+000 -5.555713e-001  8.314689e-001
    outer loop
      vertex -3.000000e+000  2.007223e+001  8.609541e+000
      vertex  2.000000e+000  2.039665e+001  8.826314e+000
      vertex -3.000000e+000  2.039665e+001  8.826314e+000
    endloop
  endfacet
  facet normal  0.000000e+000 -8.314678e-001  5.555730e-001
    outer loop
      vertex -3.000000e+000  2.039665e+001  8.826314e+000
      vertex  2.000000e+000  2.039665e+001  8.826314e+000
      vertex  2.000000e+000  2.061343e+001  9.150737e+000
    endloop
  endfacet
  facet normal  0.000000e+000 -8.314678e-001  5.555730e-001
    outer loop
      vertex -3.000000e+000  2.039665e+001  8.826314e+000
      vertex  2.000000e+000  2.061343e+001  9.150737e+000
      vertex -3.000000e+000  2.061343e+001  9.150737e+000
    endloop
  endfacet
  facet normal  0.000000e+000 -9.807854e-001  1.950900e-001
    outer loop
      vertex -3.000000e+000  2.061343e+001  9.150737e+000
      vertex  2.000000e+000  2.061343e+001  9.150737e+000
      vertex  2.000000e+000  2.068955e+001  9.533421e+000
    endloop
  endfacet
  facet normal  0.000000e+000 -9.807854e-001  1.950900e-001
    outer loop
      vertex -3.000000e+000  2.061343e+001  9.150737e+000
      vertex  2.000000e+000  2.068955e+001  9.533421e+000
      vertex -3.000000e+000  2.068955e+001  9.533421e+000
    endloop
  endfacet
  facet normal  0.000000e+000 -1.950904e-001 -9.807853e-001
    outer loop
      vertex  2.000000e+000  1.968955e+001  1.053342e+001
      vertex -3.000000e+000  2.007223e+001  1.045730e+001
      vertex  2.000000e+000  2.007223e+001  1.045730e+001
    endloop
  endfacet
  facet normal  -0.000000e+000 -5.555713e-001 -8.314689e-001
    outer loop
      vertex  2.000000e+000  2.007223e+001  1.045730e+001
      vertex -3.000000e+000  2.007223e+001  1.045730e+001
      vertex -3.000000e+000  2.039665e+001  1.024053e+001
    endloop
  endfacet
  facet normal  0.000000e+000 -5.555713e-001 -8.314689e-001
    outer loop
      vertex  2.000000e+000  2.007223e+001  1.045730e+001
      vertex -3.000000e+000  2.039665e+001  1.024053e+001
      vertex  2.000000e+000  2.039665e+001  1.024053e+001
    endloop
  endfacet
  facet normal  -0.000000e+000 -8.314678e-001 -5.555730e-001
    outer loop
      vertex  2.000000e+000  2.039665e+001  1.024053e+001
      vertex -3.000000e+000  2.039665e+001  1.024053e+001
      vertex -3.000000e+000  2.061343e+001  9.916104e+000
    endloop
  endfacet
  facet normal  0.000000e+000 -8.314678e-001 -5.555730e-001
    outer loop
      vertex  2.000000e+000  2.039665e+001  1.024053e+001
      vertex -3.000000e+000  2.061343e+001  9.916104e+000
      vertex  2.000000e+000  2.061343e+001  9.916104e+000
    endloop
  endfacet
  facet normal  -0.000000e+000 -9.807854e-001 -1.950900e-001
    outer loop
      vertex  2.000000e+000  2.061343e+001  9.916104e+000
      vertex -3.000000e+000  2.061343e+001  9.916104e+000
      vertex -3.000000e+000  2.068955e+001  9.533421e+000
    endloop
  endfacet
  facet normal  0.000000e+000 -9.807854e-001 -1.950900e-001
    outer loop
      vertex  2.000000e+000  2.061343e+001  9.916104e+000
      vertex -3.000000e+000  2.068955e+001  9.533421e+000
      vertex  2.000000e+000  2.068955e+001  9.533421e+000
    endloop
  endfacet
  facet normal  -0.000000e+000 -1.950904e-001 -9.807853e-001
    outer loop
      vertex -3.000000e+000  2.007223e+001  1.045730e+001
      vertex  2.000000e+000  1.968955e+001  1.053342e+001
      vertex -3.000000e+000  1.968955e+001  1.053342e+001
    endloop
  endfacet
  facet normal  0.000000e+000  1.950895e-001 -9.807854e-001
    outer loop
      vertex -3.000000e+000  1.968955e+001  1.053342e+001
      vertex  2.000000e+000  1.968955e+001  1.053342e+001
      vertex  2.000000e+000  1.930686e+001  1.045730e+001
    endloop
  endfacet
  facet normal  0.000000e+000  1.950895e-001 -9.807854e-001
    outer loop
      vertex -3.000000e+000  1.968955e+001  1.053342e+001
      vertex  2.000000e+000  1.930686e+001  1.045730e+001
      vertex -3.000000e+000  1.930686e+001  1.045730e+001
    endloop
  endfacet
  facet normal  0.000000e+000  5.555713e-001 -8.314689e-001
    outer loop
      vertex -3.000000e+000  1.930686e+001  1.045730e+001
      vertex  2.000000e+000  1.930686e+001  1.045730e+001
      vertex  2.000000e+000  1.898244e+001  1.024053e+001
    endloop
  endfacet
  facet normal  0.000000e+000  5.555713e-001 -8.314689e-001
    outer loop
      vertex -3.000000e+000  1.930686e+001  1.045730e+001
      vertex  2.000000e+000  1.898244e+001  1.024053e+001
      vertex -3.000000e+000  1.898244e+001  1.024053e+001
    endloop
  endfacet
  facet normal  0.000000e+000  8.314700e-001 -5.555696e-001
    outer loop
      vertex -3.000000e+000  1.898244e+001  1.024053e+001
      vertex  2.000000e+000  1.898244e+001  1.024053e+001
      vertex  2.000000e+000  1.876567e+001  9.916104e+000
    endloop
  endfacet
  facet normal  0.000000e+000  8.314700e-001 -5.555696e-001
    outer loop
      vertex -3.000000e+000  1.898244e+001  1.024053e+001
      vertex  2.000000e+000  1.876567e+001  9.916104e+000
      vertex -3.000000e+000  1.876567e+001  9.916104e+000
    endloop
  endfacet
  facet normal  0.000000e+000  9.807854e-001 -1.950900e-001
    outer loop
      vertex -3.000000e+000  1.876567e+001  9.916104e+000
      vertex  2.000000e+000  1.876567e+001  9.916104e+000
      vertex  2.000000e+000  1.868955e+001  9.533421e+000
    endloop
  endfacet
  facet normal  0.000000e+000  9.807854e-001 -1.950900e-001
    outer loop
      vertex -3.000000e+000  1.876567e+001  9.916104e+000
      vertex  2.000000e+000  1.868955e+001  9.533421e+000
      vertex -3.000000e+000  1.868955e+001  9.533421e+000
    endloop
  endfacet
  facet normal  0.000000e+000  1.000000e+000  -0.000000e+000
    outer loop
      vertex  2.000000e+000 -7.310454e+000 -1.966579e+000
      vertex  2.000000e+000 -7.310454e+000 -8.966579e+000
      vertex  0.000000e+000 -7.310454e+000 -1.966579e+000
    endloop
  endfacet
  facet normal  0.000000e+000  1.000000e+000  0.000000e+000
    outer loop
      vertex  0.000000e+000 -7.310454e+000 -1.966579e+000
      vertex  2.000000e+000 -7.310454e+000 -8.966579e+000
      vertex  0.000000e+000 -7.310454e+000 -2.966579e+000
    endloop
  endfacet
  facet normal  0.000000e+000  1.000000e+000  0.000000e+000
    outer loop
      vertex  2.000000e+000 -7.310454e+000 -8.966579e+000
      vertex -3.000000e+000 -7.310454e+000 -8.966579e+000
      vertex  0.000000e+000 -7.310454e+000 -2.966579e+000
    endloop
  endfacet
  facet normal  0.000000e+000  1.000000e+000  0.000000e+000
    outer loop
      vertex  0.000000e+000 -7.310454e+000 -2.966579e+000
      vertex -3.000000e+000 -7.310454e+000 -8.966579e+000
      vertex -3.000000e+000 -7.310454e+000 -2.966579e+000
    endloop
  endfacet
  facet normal  0.000000e+000  0.000000e+000 -1.000000e+000
    outer loop
      vertex  2.000000e+000 -7.310454e+000 -8.966579e+000
      vertex  2.000000e+000 -1.331045e+001 -8.966579e+000
      vertex -3.000000e+000 -7.310454e+000 -8.966579e+000
    endloop
  endfacet
  facet normal  0.000000e+000  0.000000e+000 -1.000000e+000
    outer loop
      vertex -3.000000e+000 -7.310454e+000 -8.966579e+000
      vertex  2.000000e+000 -1.331045e+001 -8.966579e+000
      vertex -3.000000e+000 -1.331045e+001 -8.966579e+000
    endloop
  endfacet
  facet normal  0.000000e+000 -1.000000e+000  0.000000e+000
    outer loop
      vertex  0.000000e+000 -1.331045e+001  3.033421e+000
      vertex  0.000000e+000 -1.331045e+001 -2.966579e+000
      vertex  2.000000e+000 -1.331045e+001  3.033421e+000
    endloop
  endfacet
  facet normal  0.000000e+000 -1.000000e+000  -0.000000e+000
    outer loop
      vertex  2.000000e+000 -1.331045e+001  3.033421e+000
      vertex  0.000000e+000 -1.331045e+001 -2.966579e+000
      vertex  2.000000e+000 -1.331045e+001 -8.966579e+000
    endloop
  endfacet
  facet normal  0.000000e+000 -1.000000e+000  0.000000e+000
    outer loop
      vertex  0.000000e+000 -1.331045e+001 -2.966579e+000
      vertex -3.000000e+000 -1.331045e+001 -2.966579e+000
      vertex  2.000000e+000 -1.331045e+001 -8.966579e+000
    endloop
  endfacet
  facet normal  0.000000e+000 -1.000000e+000  0.000000e+000
    outer loop
      vertex  2.000000e+000 -1.331045e+001 -8.966579e+000
      vertex -3.000000e+000 -1.331045e+001 -2.966579e+000
      vertex -3.000000e+000 -1.331045e+001 -8.966579e+000
    endloop
  endfacet
  facet normal  0.000000e+000 -1.950900e-001 -9.807854e-001
    outer loop
      vertex  2.000000e+000 -1.031045e+001 -5.466579e+000
      vertex -3.000000e+000 -9.927771e+000 -5.542700e+000
      vertex  2.000000e+000 -9.927771e+000 -5.542700e+000
    endloop
  endfacet
  facet normal  -0.000000e+000 -5.555702e-001 -8.314697e-001
    outer loop
      vertex  2.000000e+000 -9.927771e+000 -5.542700e+000
      vertex -3.000000e+000 -9.927771e+000 -5.542700e+000
      vertex -3.000000e+000 -9.603347e+000 -5.759473e+000
    endloop
  endfacet
  facet normal  0.000000e+000 -5.555702e-001 -8.314697e-001
    outer loop
      vertex  2.000000e+000 -9.927771e+000 -5.542700e+000
      vertex -3.000000e+000 -9.603347e+000 -5.759473e+000
      vertex  2.000000e+000 -9.603347e+000 -5.759473e+000
    endloop
  endfacet
  facet normal  -0.000000e+000 -8.314704e-001 -5.555691e-001
    outer loop
      vertex  2.000000e+000 -9.603347e+000 -5.759473e+000
      vertex -3.000000e+000 -9.603347e+000 -5.759473e+000
      vertex -3.000000e+000 -9.386575e+000 -6.083896e+000
    endloop
  endfacet
  facet normal  0.000000e+000 -8.314704e-001 -5.555691e-001
    outer loop
      vertex  2.000000e+000 -9.603347e+000 -5.759473e+000
      vertex -3.000000e+000 -9.386575e+000 -6.083896e+000
      vertex  2.000000e+000 -9.386575e+000 -6.083896e+000
    endloop
  endfacet
  facet normal  -0.000000e+000 -9.807853e-001 -1.950902e-001
    outer loop
      vertex  2.000000e+000 -9.386575e+000 -6.083896e+000
      vertex -3.000000e+000 -9.386575e+000 -6.083896e+000
      vertex -3.000000e+000 -9.310454e+000 -6.466579e+000
    endloop
  endfacet
  facet normal  0.000000e+000 -9.807853e-001 -1.950902e-001
    outer loop
      vertex  2.000000e+000 -9.386575e+000 -6.083896e+000
      vertex -3.000000e+000 -9.310454e+000 -6.466579e+000
      vertex  2.000000e+000 -9.310454e+000 -6.466579e+000
    endloop
  endfacet
  facet normal  -0.000000e+000 -1.950900e-001 -9.807854e-001
    outer loop
      vertex -3.000000e+000 -9.927771e+000 -5.542700e+000
      vertex  2.000000e+000 -1.031045e+001 -5.466579e+000
      vertex -3.000000e+000 -1.031045e+001 -5.466579e+000
    endloop
  endfacet
  facet normal  0.000000e+000  1.950904e-001 -9.807853e-001
    outer loop
      vertex -3.000000e+000 -1.031045e+001 -5.466579e+000
      vertex  2.000000e+000 -1.031045e+001 -5.466579e+000
      vertex  2.000000e+000 -1.069314e+001 -5.542700e+000
    endloop
  endfacet
  facet normal  0.000000e+000  1.950904e-001 -9.807853e-001
    outer loop
      vertex -3.000000e+000 -1.031045e+001 -5.466579e+000
      vertex  2.000000e+000 -1.069314e+001 -5.542700e+000
      vertex -3.000000e+000 -1.069314e+001 -5.542700e+000
    endloop
  endfacet
  facet normal  0.000000e+000  5.555702e-001 -8.314697e-001
    outer loop
      vertex -3.000000e+000 -1.069314e+001 -5.542700e+000
      vertex  2.000000e+000 -1.069314e+001 -5.542700e+000
      vertex  2.000000e+000 -1.101756e+001 -5.759473e+000
    endloop
  endfacet
  facet normal  0.000000e+000  5.555702e-001 -8.314697e-001
    outer loop
      vertex -3.000000e+000 -1.069314e+001 -5.542700e+000
      vertex  2.000000e+000 -1.101756e+001 -5.759473e+000
      vertex -3.000000e+000 -1.101756e+001 -5.759473e+000
    endloop
  endfacet
  facet normal  0.000000e+000  8.314693e-001 -5.555708e-001
    outer loop
      vertex -3.000000e+000 -1.101756e+001 -5.759473e+000
      vertex  2.000000e+000 -1.101756e+001 -5.759473e+000
      vertex  2.000000e+000 -1.123433e+001 -6.083896e+000
    endloop
  endfacet
  facet normal  0.000000e+000  8.314693e-001 -5.555708e-001
    outer loop
      vertex -3.000000e+000 -1.101756e+001 -5.759473e+000
      vertex  2.000000e+000 -1.123433e+001 -6.083896e+000
      vertex -3.000000e+000 -1.123433e+001 -6.083896e+000
    endloop
  endfacet
  facet normal  0.000000e+000  9.807853e-001 -1.950902e-001
    outer loop
      vertex -3.000000e+000 -1.123433e+001 -6.083896e+000
      vertex  2.000000e+000 -1.123433e+001 -6.083896e+000
      vertex  2.000000e+000 -1.131045e+001 -6.466579e+000
    endloop
  endfacet
  facet normal  0.000000e+000  9.807853e-001 -1.950902e-001
    outer loop
      vertex -3.000000e+000 -1.123433e+001 -6.083896e+000
      vertex  2.000000e+000 -1.131045e+001 -6.466579e+000
      vertex -3.000000e+000 -1.131045e+001 -6.466579e+000
    endloop
  endfacet
  facet normal  -0.000000e+000  1.950904e-001  9.807853e-001
    outer loop
      vertex  2.000000e+000 -1.031045e+001 -7.466579e+000
      vertex -3.000000e+000 -1.069314e+001 -7.390459e+000
      vertex  2.000000e+000 -1.069314e+001 -7.390459e+000
    endloop
  endfacet
  facet normal  0.000000e+000  5.555702e-001  8.314697e-001
    outer loop
      vertex  2.000000e+000 -1.069314e+001 -7.390459e+000
      vertex -3.000000e+000 -1.069314e+001 -7.390459e+000
      vertex -3.000000e+000 -1.101756e+001 -7.173686e+000
    endloop
  endfacet
  facet normal  -0.000000e+000  5.555702e-001  8.314697e-001
    outer loop
      vertex  2.000000e+000 -1.069314e+001 -7.390459e+000
      vertex -3.000000e+000 -1.101756e+001 -7.173686e+000
      vertex  2.000000e+000 -1.101756e+001 -7.173686e+000
    endloop
  endfacet
  facet normal  0.000000e+000  8.314693e-001  5.555708e-001
    outer loop
      vertex  2.000000e+000 -1.101756e+001 -7.173686e+000
      vertex -3.000000e+000 -1.101756e+001 -7.173686e+000
      vertex -3.000000e+000 -1.123433e+001 -6.849263e+000
    endloop
  endfacet
  facet normal  -0.000000e+000  8.314693e-001  5.555708e-001
    outer loop
      vertex  2.000000e+000 -1.101756e+001 -7.173686e+000
      vertex -3.000000e+000 -1.123433e+001 -6.849263e+000
      vertex  2.000000e+000 -1.123433e+001 -6.849263e+000
    endloop
  endfacet
  facet normal  0.000000e+000  9.807853e-001  1.950902e-001
    outer loop
      vertex  2.000000e+000 -1.123433e+001 -6.849263e+000
      vertex -3.000000e+000 -1.123433e+001 -6.849263e+000
      vertex -3.000000e+000 -1.131045e+001 -6.466579e+000
    endloop
  endfacet
  facet normal  -0.000000e+000  9.807853e-001  1.950902e-001
    outer loop
      vertex  2.000000e+000 -1.123433e+001 -6.849263e+000
      vertex -3.000000e+000 -1.131045e+001 -6.466579e+000
      vertex  2.000000e+000 -1.131045e+001 -6.466579e+000
    endloop
  endfacet
  facet normal  0.000000e+000  1.950904e-001  9.807853e-001
    outer loop
      vertex -3.000000e+000 -1.069314e+001 -7.390459e+000
      vertex  2.000000e+000 -1.031045e+001 -7.466579e+000
      vertex -3.000000e+000 -1.031045e+001 -7.466579e+000
    endloop
  endfacet
  facet normal  0.000000e+000 -1.950900e-001  9.807854e-001
    outer loop
      vertex -3.000000e+000 -1.031045e+001 -7.466579e+000
      vertex  2.000000e+000 -1.031045e+001 -7.466579e+000
      vertex  2.000000e+000 -9.927771e+000 -7.390459e+000
    endloop
  endfacet
  facet normal  0.000000e+000 -1.950900e-001  9.807854e-001
    outer loop
      vertex -3.000000e+000 -1.031045e+001 -7.466579e+000
      vertex  2.000000e+000 -9.927771e+000 -7.390459e+000
      vertex -3.000000e+000 -9.927771e+000 -7.390459e+000
    endloop
  endfacet
  facet normal  0.000000e+000 -5.555702e-001  8.314697e-001
    outer loop
      vertex -3.000000e+000 -9.927771e+000 -7.390459e+000
      vertex  2.000000e+000 -9.927771e+000 -7.390459e+000
      vertex  2.000000e+000 -9.603347e+000 -7.173686e+000
    endloop
  endfacet
  facet normal  0.000000e+000 -5.555702e-001  8.314697e-001
    outer loop
      vertex -3.000000e+000 -9.927771e+000 -7.390459e+000
      vertex  2.000000e+000 -9.603347e+000 -7.173686e+000
      vertex -3.000000e+000 -9.603347e+000 -7.173686e+000
    endloop
  endfacet
  facet normal  0.000000e+000 -8.314704e-001  5.555691e-001
    outer loop
      vertex -3.000000e+000 -9.603347e+000 -7.173686e+000
      vertex  2.000000e+000 -9.603347e+000 -7.173686e+000
      vertex  2.000000e+000 -9.386575e+000 -6.849263e+000
    endloop
  endfacet
  facet normal  0.000000e+000 -8.314704e-001  5.555691e-001
    outer loop
      vertex -3.000000e+000 -9.603347e+000 -7.173686e+000
      vertex  2.000000e+000 -9.386575e+000 -6.849263e+000
      vertex -3.000000e+000 -9.386575e+000 -6.849263e+000
    endloop
  endfacet
  facet normal  0.000000e+000 -9.807853e-001  1.950902e-001
    outer loop
      vertex -3.000000e+000 -9.386575e+000 -6.849263e+000
      vertex  2.000000e+000 -9.386575e+000 -6.849263e+000
      vertex  2.000000e+000 -9.310454e+000 -6.466579e+000
    endloop
  endfacet
  facet normal  0.000000e+000 -9.807853e-001  1.950902e-001
    outer loop
      vertex -3.000000e+000 -9.386575e+000 -6.849263e+000
      vertex  2.000000e+000 -9.310454e+000 -6.466579e+000
      vertex -3.000000e+000 -9.310454e+000 -6.466579e+000
    endloop
  endfacet
  facet normal  1.000000e+000  -0.000000e+000  0.000000e+000
    outer loop
      vertex  2.000000e+000  1.668955e+001  3.033421e+000
      vertex  2.000000e+000 -1.331045e+001  3.033421e+000
      vertex  2.000000e+000  1.568955e+001  1.533421e+000
    endloop
  endfacet
  facet normal  1.000000e+000  -0.000000e+000  0.000000e+000
    outer loop
      vertex  2.000000e+000  1.668955e+001  3.033421e+000
      vertex  2.000000e+000  1.568955e+001  1.533421e+000
      vertex  2.000000e+000  1.607223e+001  1.457300e+000
    endloop
  endfacet
  facet normal  1.000000e+000  -0.000000e+000  0.000000e+000
    outer loop
      vertex  2.000000e+000  1.668955e+001  3.033421e+000
      vertex  2.000000e+000  1.607223e+001  1.457300e+000
      vertex  2.000000e+000  1.639665e+001  1.240527e+000
    endloop
  endfacet
  facet normal  9.999999e-001  -0.000000e+000  0.000000e+000
    outer loop
      vertex  2.000000e+000  1.668955e+001  3.033421e+000
      vertex  2.000000e+000  1.639665e+001  1.240527e+000
      vertex  2.000000e+000  1.661343e+001  9.161040e-001
    endloop
  endfacet
  facet normal  1.000000e+000  -0.000000e+000  0.000000e+000
    outer loop
      vertex  2.000000e+000  1.668955e+001  3.033421e+000
      vertex  2.000000e+000  1.661343e+001  9.161040e-001
      vertex  2.000000e+000  1.668955e+001  5.334206e-001
    endloop
  endfacet
  facet normal  1.000000e+000  0.000000e+000  0.000000e+000
    outer loop
      vertex  2.000000e+000  1.668955e+001  3.033421e+000
      vertex  2.000000e+000  1.668955e+001  5.334206e-001
      vertex  2.000000e+000  1.968955e+001  8.533421e+000
    endloop
  endfacet
  facet normal  9.999999e-001  0.000000e+000  0.000000e+000
    outer loop
      vertex  2.000000e+000  1.668955e+001  3.033421e+000
      vertex  2.000000e+000  1.968955e+001  8.533421e+000
      vertex  2.000000e+000  1.930686e+001  8.609541e+000
    endloop
  endfacet
  facet normal  1.000000e+000  0.000000e+000  0.000000e+000
    outer loop
      vertex  2.000000e+000  1.668955e+001  3.033421e+000
      vertex  2.000000e+000  1.930686e+001  8.609541e+000
      vertex  2.000000e+000  1.898244e+001  8.826314e+000
    endloop
  endfacet
  facet normal  9.999999e-001  0.000000e+000  0.000000e+000
    outer loop
      vertex  2.000000e+000  1.668955e+001  3.033421e+000
      vertex  2.000000e+000  1.898244e+001  8.826314e+000
      vertex  2.000000e+000  1.876567e+001  9.150737e+000
    endloop
  endfacet
  facet normal  1.000000e+000  0.000000e+000  0.000000e+000
    outer loop
      vertex  2.000000e+000  1.668955e+001  3.033421e+000
      vertex  2.000000e+000  1.876567e+001  9.150737e+000
      vertex  2.000000e+000  1.868955e+001  9.533421e+000
    endloop
  endfacet
  facet normal  1.000000e+000  0.000000e+000  -0.000000e+000
    outer loop
      vertex  2.000000e+000  1.668955e+001  3.033421e+000
      vertex  2.000000e+000  1.868955e+001  9.533421e+000
      vertex  2.000000e+000  1.876567e+001  9.916104e+000
    endloop
  endfacet
  facet normal  1.000000e+000  0.000000e+000  0.000000e+000
    outer loop
      vertex  2.000000e+000  1.668955e+001  3.033421e+000
      vertex  2.000000e+000  1.876567e+001  9.916104e+000
      vertex  2.000000e+000  1.668955e+001  1.253342e+001
    endloop
  endfacet
  facet normal  1.000000e+000  0.000000e+000  -0.000000e+000
    outer loop
      vertex  2.000000e+000  1.668955e+001  1.253342e+001
      vertex  2.000000e+000  1.876567e+001  9.916104e+000
      vertex  2.000000e+000  1.898244e+001  1.024053e+001
    endloop
  endfacet
  facet normal  1.000000e+000  0.000000e+000  -0.000000e+000
    outer loop
      vertex  2.000000e+000  1.668955e+001  1.253342e+001
      vertex  2.000000e+000  1.898244e+001  1.024053e+001
      vertex  2.000000e+000  1.930686e+001  1.045730e+001
    endloop
  endfacet
  facet normal  1.000000e+000  0.000000e+000  -0.000000e+000
    outer loop
      vertex  2.000000e+000  1.668955e+001  1.253342e+001
      vertex  2.000000e+000  1.930686e+001  1.045730e+001
      vertex  2.000000e+000  1.968955e+001  1.053342e+001
    endloop
  endfacet
  facet normal  1.000000e+000  0.000000e+000  -0.000000e+000
    outer loop
      vertex  2.000000e+000  1.668955e+001  1.253342e+001
      vertex  2.000000e+000  1.968955e+001  1.053342e+001
      vertex  2.000000e+000  2.268955e+001  1.253342e+001
    endloop
  endfacet
  facet normal  1.000000e+000  0.000000e+000  0.000000e+000
    outer loop
      vertex  2.000000e+000 -7.310454e+000 -8.966579e+000
      vertex  2.000000e+000 -7.310454e+000 -1.966579e+000
      vertex  2.000000e+000 -9.310454e+000 -4.665794e-001
    endloop
  endfacet
  facet normal  1.000000e+000  0.000000e+000  0.000000e+000
    outer loop
      vertex  2.000000e+000 -7.310454e+000 -8.966579e+000
      vertex  2.000000e+000 -9.310454e+000 -4.665794e-001
      vertex  2.000000e+000 -9.310454e+000 -6.466579e+000
    endloop
  endfacet
  facet normal  1.000000e+000  0.000000e+000  0.000000e+000
    outer loop
      vertex  2.000000e+000 -7.310454e+000 -8.966579e+000
      vertex  2.000000e+000 -9.310454e+000 -6.466579e+000
      vertex  2.000000e+000 -9.386575e+000 -6.849263e+000
    endloop
  endfacet
  facet normal  1.000000e+000  0.000000e+000  0.000000e+000
    outer loop
      vertex  2.000000e+000 -7.310454e+000 -8.966579e+000
      vertex  2.000000e+000 -9.386575e+000 -6.849263e+000
      vertex  2.000000e+000 -9.603347e+000 -7.173686e+000
    endloop
  endfacet
  facet normal  1.000000e+000  0.000000e+000  0.000000e+000
    outer loop
      vertex  2.000000e+000 -7.310454e+000 -8.966579e+000
      vertex  2.000000e+000 -9.603347e+000 -7.173686e+000
      vertex  2.000000e+000 -9.927771e+000 -7.390459e+000
    endloop
  endfacet
  facet normal  1.000000e+000  0.000000e+000  0.000000e+000
    outer loop
      vertex  2.000000e+000 -7.310454e+000 -8.966579e+000
      vertex  2.000000e+000 -9.927771e+000 -7.390459e+000
      vertex  2.000000e+000 -1.331045e+001 -8.966579e+000
    endloop
  endfacet
  facet normal  1.000000e+000  0.000000e+000  0.000000e+000
    outer loop
      vertex  2.000000e+000  2.268955e+001 -1.966579e+000
      vertex  2.000000e+000  2.068955e+001  9.533421e+000
      vertex  2.000000e+000  2.061343e+001  9.150737e+000
    endloop
  endfacet
  facet normal  1.000000e+000  0.000000e+000  0.000000e+000
    outer loop
      vertex  2.000000e+000  2.268955e+001 -1.966579e+000
      vertex  2.000000e+000  2.061343e+001  9.150737e+000
      vertex  2.000000e+000  2.039665e+001  8.826314e+000
    endloop
  endfacet
  facet normal  1.000000e+000  0.000000e+000  0.000000e+000
    outer loop
      vertex  2.000000e+000  2.268955e+001 -1.966579e+000
      vertex  2.000000e+000  2.039665e+001  8.826314e+000
      vertex  2.000000e+000  2.007223e+001  8.609541e+000
    endloop
  endfacet
  facet normal  1.000000e+000  0.000000e+000  0.000000e+000
    outer loop
      vertex  2.000000e+000  2.268955e+001 -1.966579e+000
      vertex  2.000000e+000  2.007223e+001  8.609541e+000
      vertex  2.000000e+000  1.968955e+001  8.533421e+000
    endloop
  endfacet
  facet normal  1.000000e+000  0.000000e+000  0.000000e+000
    outer loop
      vertex  2.000000e+000  2.268955e+001 -1.966579e+000
      vertex  2.000000e+000  1.968955e+001  8.533421e+000
      vertex  2.000000e+000  1.668955e+001  5.334206e-001
    endloop
  endfacet
  facet normal  9.999999e-001  0.000000e+000  0.000000e+000
    outer loop
      vertex  2.000000e+000  2.268955e+001 -1.966579e+000
      vertex  2.000000e+000  1.668955e+001  5.334206e-001
      vertex  2.000000e+000  1.661343e+001  1.507372e-001
    endloop
  endfacet
  facet normal  1.000000e+000  0.000000e+000  0.000000e+000
    outer loop
      vertex  2.000000e+000  2.268955e+001 -1.966579e+000
      vertex  2.000000e+000  1.661343e+001  1.507372e-001
      vertex  2.000000e+000  1.639665e+001 -1.736862e-001
    endloop
  endfacet
  facet normal  1.000000e+000  0.000000e+000  0.000000e+000
    outer loop
      vertex  2.000000e+000  2.268955e+001 -1.966579e+000
      vertex  2.000000e+000  1.639665e+001 -1.736862e-001
      vertex  2.000000e+000  1.607223e+001 -3.904589e-001
    endloop
  endfacet
  facet normal  1.000000e+000  0.000000e+000  0.000000e+000
    outer loop
      vertex  2.000000e+000  2.268955e+001 -1.966579e+000
      vertex  2.000000e+000  1.607223e+001 -3.904589e-001
      vertex  2.000000e+000  1.568955e+001 -4.665794e-001
    endloop
  endfacet
  facet normal  1.000000e+000  0.000000e+000  0.000000e+000
    outer loop
      vertex  2.000000e+000  2.268955e+001 -1.966579e+000
      vertex  2.000000e+000  1.568955e+001 -4.665794e-001
      vertex  2.000000e+000 -7.310454e+000 -1.966579e+000
    endloop
  endfacet
  facet normal  1.000000e+000  0.000000e+000  0.000000e+000
    outer loop
      vertex  2.000000e+000 -1.331045e+001  3.033421e+000
      vertex  2.000000e+000 -1.331045e+001 -8.966579e+000
      vertex  2.000000e+000 -1.023433e+001  9.161040e-001
    endloop
  endfacet
  facet normal  1.000000e+000  0.000000e+000  -0.000000e+000
    outer loop
      vertex  2.000000e+000 -1.331045e+001  3.033421e+000
      vertex  2.000000e+000 -1.023433e+001  9.161040e-001
      vertex  2.000000e+000 -1.001756e+001  1.240527e+000
    endloop
  endfacet
  facet normal  1.000000e+000  0.000000e+000  -0.000000e+000
    outer loop
      vertex  2.000000e+000 -1.331045e+001  3.033421e+000
      vertex  2.000000e+000 -1.001756e+001  1.240527e+000
      vertex  2.000000e+000 -9.693137e+000  1.457300e+000
    endloop
  endfacet
  facet normal  1.000000e+000  0.000000e+000  -0.000000e+000
    outer loop
      vertex  2.000000e+000 -1.331045e+001  3.033421e+000
      vertex  2.000000e+000 -9.693137e+000  1.457300e+000
      vertex  2.000000e+000 -9.310454e+000  1.533421e+000
    endloop
  endfacet
  facet normal  1.000000e+000  0.000000e+000  -0.000000e+000
    outer loop
      vertex  2.000000e+000 -1.331045e+001  3.033421e+000
      vertex  2.000000e+000 -9.310454e+000  1.533421e+000
      vertex  2.000000e+000  1.568955e+001  1.533421e+000
    endloop
  endfacet
  facet normal  1.000000e+000  0.000000e+000  0.000000e+000
    outer loop
      vertex  2.000000e+000 -1.331045e+001 -8.966579e+000
      vertex  2.000000e+000 -9.927771e+000 -7.390459e+000
      vertex  2.000000e+000 -1.031045e+001 -7.466579e+000
    endloop
  endfacet
  facet normal  1.000000e+000  0.000000e+000  0.000000e+000
    outer loop
      vertex  2.000000e+000 -1.331045e+001 -8.966579e+000
      vertex  2.000000e+000 -1.031045e+001 -7.466579e+000
      vertex  2.000000e+000 -1.069314e+001 -7.390459e+000
    endloop
  endfacet
  facet normal  1.000000e+000  0.000000e+000  0.000000e+000
    outer loop
      vertex  2.000000e+000 -1.331045e+001 -8.966579e+000
      vertex  2.000000e+000 -1.069314e+001 -7.390459e+000
      vertex  2.000000e+000 -1.101756e+001 -7.173686e+000
    endloop
  endfacet
  facet normal  1.000000e+000  0.000000e+000  0.000000e+000
    outer loop
      vertex  2.000000e+000 -1.331045e+001 -8.966579e+000
      vertex  2.000000e+000 -1.101756e+001 -7.173686e+000
      vertex  2.000000e+000 -1.123433e+001 -6.849263e+000
    endloop
  endfacet
  facet normal  1.000000e+000  0.000000e+000  0.000000e+000
    outer loop
      vertex  2.000000e+000 -1.331045e+001 -8.966579e+000
      vertex  2.000000e+000 -1.123433e+001 -6.849263e+000
      vertex  2.000000e+000 -1.131045e+001 -6.466579e+000
    endloop
  endfacet
  facet normal  1.000000e+000  0.000000e+000  -0.000000e+000
    outer loop
      vertex  2.000000e+000 -1.331045e+001 -8.966579e+000
      vertex  2.000000e+000 -1.131045e+001 -6.466579e+000
      vertex  2.000000e+000 -1.123433e+001 -6.083896e+000
    endloop
  endfacet
  facet normal  1.000000e+000  0.000000e+000  -0.000000e+000
    outer loop
      vertex  2.000000e+000 -1.331045e+001 -8.966579e+000
      vertex  2.000000e+000 -1.123433e+001 -6.083896e+000
      vertex  2.000000e+000 -1.101756e+001 -5.759473e+000
    endloop
  endfacet
  facet normal  1.000000e+000  0.000000e+000  -0.000000e+000
    outer loop
      vertex  2.000000e+000 -1.331045e+001 -8.966579e+000
      vertex  2.000000e+000 -1.101756e+001 -5.759473e+000
      vertex  2.000000e+000 -9.310454e+000 -4.665794e-001
    endloop
  endfacet
  facet normal  1.000000e+000  0.000000e+000  0.000000e+000
    outer loop
      vertex  2.000000e+000 -1.331045e+001 -8.966579e+000
      vertex  2.000000e+000 -9.310454e+000 -4.665794e-001
      vertex  2.000000e+000 -9.693137e+000 -3.904589e-001
    endloop
  endfacet
  facet normal  1.000000e+000  0.000000e+000  0.000000e+000
    outer loop
      vertex  2.000000e+000 -1.331045e+001 -8.966579e+000
      vertex  2.000000e+000 -9.693137e+000 -3.904589e-001
      vertex  2.000000e+000 -1.001756e+001 -1.736862e-001
    endloop
  endfacet
  facet normal  1.000000e+000  0.000000e+000  0.000000e+000
    outer loop
      vertex  2.000000e+000 -1.331045e+001 -8.966579e+000
      vertex  2.000000e+000 -1.001756e+001 -1.736862e-001
      vertex  2.000000e+000 -1.023433e+001  1.507372e-001
    endloop
  endfacet
  facet normal  1.000000e+000  0.000000e+000  0.000000e+000
    outer loop
      vertex  2.000000e+000 -1.331045e+001 -8.966579e+000
      vertex  2.000000e+000 -1.023433e+001  1.507372e-001
      vertex  2.000000e+000 -1.031045e+001  5.334206e-001
    endloop
  endfacet
  facet normal  1.000000e+000  0.000000e+000  -0.000000e+000
    outer loop
      vertex  2.000000e+000 -1.331045e+001 -8.966579e+000
      vertex  2.000000e+000 -1.031045e+001  5.334206e-001
      vertex  2.000000e+000 -1.023433e+001  9.161040e-001
    endloop
  endfacet
  facet normal  1.000000e+000  0.000000e+000  0.000000e+000
    outer loop
      vertex  2.000000e+000 -9.310454e+000 -4.665794e-001
      vertex  2.000000e+000 -1.101756e+001 -5.759473e+000
      vertex  2.000000e+000 -1.069314e+001 -5.542700e+000
    endloop
  endfacet
  facet normal  1.000000e+000  0.000000e+000  0.000000e+000
    outer loop
      vertex  2.000000e+000 -9.310454e+000 -4.665794e-001
      vertex  2.000000e+000 -1.069314e+001 -5.542700e+000
      vertex  2.000000e+000 -1.031045e+001 -5.466579e+000
    endloop
  endfacet
  facet normal  1.000000e+000  -0.000000e+000  0.000000e+000
    outer loop
      vertex  2.000000e+000 -9.310454e+000 -4.665794e-001
      vertex  2.000000e+000 -1.031045e+001 -5.466579e+000
      vertex  2.000000e+000 -9.927771e+000 -5.542700e+000
    endloop
  endfacet
  facet normal  1.000000e+000  -0.000000e+000  0.000000e+000
    outer loop
      vertex  2.000000e+000 -9.310454e+000 -4.665794e-001
      vertex  2.000000e+000 -9.927771e+000 -5.542700e+000
      vertex  2.000000e+000 -9.603347e+000 -5.759473e+000
    endloop
  endfacet
  facet normal  1.000000e+000  -0.000000e+000  0.000000e+000
    outer loop
      vertex  2.000000e+000 -9.310454e+000 -4.665794e-001
      vertex  2.000000e+000 -9.603347e+000 -5.759473e+000
      vertex  2.000000e+000 -9.386575e+000 -6.083896e+000
    endloop
  endfacet
  facet normal  9.999999e-001  -0.000000e+000  0.000000e+000
    outer loop
      vertex  2.000000e+000 -9.310454e+000 -4.665794e-001
      vertex  2.000000e+000 -9.386575e+000 -6.083896e+000
      vertex  2.000000e+000 -9.310454e+000 -6.466579e+000
    endloop
  endfacet
  facet normal  1.000000e+000  -0.000000e+000  0.000000e+000
    outer loop
      vertex  2.000000e+000  2.268955e+001  1.253342e+001
      vertex  2.000000e+000  1.968955e+001  1.053342e+001
      vertex  2.000000e+000  2.007223e+001  1.045730e+001
    endloop
  endfacet
  facet normal  1.000000e+000  -0.000000e+000  0.000000e+000
    outer loop
      vertex  2.000000e+000  2.268955e+001  1.253342e+001
      vertex  2.000000e+000  2.007223e+001  1.045730e+001
      vertex  2.000000e+000  2.039665e+001  1.024053e+001
    endloop
  endfacet
  facet normal  1.000000e+000  -0.000000e+000  0.000000e+000
    outer loop
      vertex  2.000000e+000  2.268955e+001  1.253342e+001
      vertex  2.000000e+000  2.039665e+001  1.024053e+001
      vertex  2.000000e+000  2.061343e+001  9.916104e+000
    endloop
  endfacet
  facet normal  1.000000e+000  -0.000000e+000  0.000000e+000
    outer loop
      vertex  2.000000e+000  2.268955e+001  1.253342e+001
      vertex  2.000000e+000  2.061343e+001  9.916104e+000
      vertex  2.000000e+000  2.068955e+001  9.533421e+000
    endloop
  endfacet
  facet normal  1.000000e+000  -0.000000e+000  0.000000e+000
    outer loop
      vertex  2.000000e+000  2.268955e+001  1.253342e+001
      vertex  2.000000e+000  2.068955e+001  9.533421e+000
      vertex  2.000000e+000  2.268955e+001 -1.966579e+000
    endloop
  endfacet
  facet normal  1.000000e+000  -0.000000e+000  0.000000e+000
    outer loop
      vertex  2.000000e+000  1.568955e+001  1.533421e+000
      vertex  2.000000e+000 -9.310454e+000  1.533421e+000
      vertex  2.000000e+000  1.530686e+001  1.457300e+000
    endloop
  endfacet
  facet normal  9.999999e-001  0.000000e+000  0.000000e+000
    outer loop
      vertex  2.000000e+000  1.530686e+001  1.457300e+000
      vertex  2.000000e+000 -9.310454e+000  1.533421e+000
      vertex  2.000000e+000 -8.927771e+000  1.457300e+000
    endloop
  endfacet
  facet normal  1.000000e+000  -0.000000e+000  0.000000e+000
    outer loop
      vertex  2.000000e+000  1.530686e+001  1.457300e+000
      vertex  2.000000e+000 -8.927771e+000  1.457300e+000
      vertex  2.000000e+000  1.498244e+001  1.240527e+000
    endloop
  endfacet
  facet normal  1.000000e+000  0.000000e+000  0.000000e+000
    outer loop
      vertex  2.000000e+000  1.498244e+001  1.240527e+000
      vertex  2.000000e+000 -8.927771e+000  1.457300e+000
      vertex  2.000000e+000 -8.603347e+000  1.240527e+000
    endloop
  endfacet
  facet normal  1.000000e+000  -0.000000e+000  0.000000e+000
    outer loop
      vertex  2.000000e+000  1.498244e+001  1.240527e+000
      vertex  2.000000e+000 -8.603347e+000  1.240527e+000
      vertex  2.000000e+000  1.476567e+001  9.161040e-001
    endloop
  endfacet
  facet normal  1.000000e+000  0.000000e+000  0.000000e+000
    outer loop
      vertex  2.000000e+000  1.476567e+001  9.161040e-001
      vertex  2.000000e+000 -8.603347e+000  1.240527e+000
      vertex  2.000000e+000 -8.386575e+000  9.161040e-001
    endloop
  endfacet
  facet normal  1.000000e+000  -0.000000e+000  0.000000e+000
    outer loop
      vertex  2.000000e+000  1.476567e+001  9.161040e-001
      vertex  2.000000e+000 -8.386575e+000  9.161040e-001
      vertex  2.000000e+000  1.468955e+001  5.334206e-001
    endloop
  endfacet
  facet normal  1.000000e+000  0.000000e+000  0.000000e+000
    outer loop
      vertex  2.000000e+000  1.468955e+001  5.334206e-001
      vertex  2.000000e+000 -8.386575e+000  9.161040e-001
      vertex  2.000000e+000 -8.310454e+000  5.334206e-001
    endloop
  endfacet
  facet normal  1.000000e+000  -0.000000e+000  0.000000e+000
    outer loop
      vertex  2.000000e+000  1.468955e+001  5.334206e-001
      vertex  2.000000e+000 -8.310454e+000  5.334206e-001
      vertex  2.000000e+000  1.476567e+001  1.507372e-001
    endloop
  endfacet
  facet normal  1.000000e+000  0.000000e+000  0.000000e+000
    outer loop
      vertex  2.000000e+000  1.476567e+001  1.507372e-001
      vertex  2.000000e+000 -8.310454e+000  5.334206e-001
      vertex  2.000000e+000 -8.386575e+000  1.507372e-001
    endloop
  endfacet
  facet normal  1.000000e+000  -0.000000e+000  0.000000e+000
    outer loop
      vertex  2.000000e+000  1.476567e+001  1.507372e-001
      vertex  2.000000e+000 -8.386575e+000  1.507372e-001
      vertex  2.000000e+000  1.498244e+001 -1.736862e-001
    endloop
  endfacet
  facet normal  1.000000e+000  0.000000e+000  0.000000e+000
    outer loop
      vertex  2.000000e+000  1.498244e+001 -1.736862e-001
      vertex  2.000000e+000 -8.386575e+000  1.507372e-001
      vertex  2.000000e+000 -8.603347e+000 -1.736862e-001
    endloop
  endfacet
  facet normal  1.000000e+000  -0.000000e+000  0.000000e+000
    outer loop
      vertex  2.000000e+000  1.498244e+001 -1.736862e-001
      vertex  2.000000e+000 -8.603347e+000 -1.736862e-001
      vertex  2.000000e+000  1.530686e+001 -3.904589e-001
    endloop
  endfacet
  facet normal  9.999999e-001  0.000000e+000  0.000000e+000
    outer loop
      vertex  2.000000e+000  1.530686e+001 -3.904589e-001
      vertex  2.000000e+000 -8.603347e+000 -1.736862e-001
      vertex  2.000000e+000 -8.927771e+000 -3.904589e-001
    endloop
  endfacet
  facet normal  9.999999e-001  -0.000000e+000  0.000000e+000
    outer loop
      vertex  2.000000e+000  1.530686e+001 -3.904589e-001
      vertex  2.000000e+000 -8.927771e+000 -3.904589e-001
      vertex  2.000000e+000  1.568955e+001 -4.665794e-001
    endloop
  endfacet
  facet normal  1.000000e+000  0.000000e+000  0.000000e+000
    outer loop
      vertex  2.000000e+000  1.568955e+001 -4.665794e-001
      vertex  2.000000e+000 -8.927771e+000 -3.904589e-001
      vertex  2.000000e+000 -9.310454e+000 -4.665794e-001
    endloop
  endfacet
  facet normal  1.000000e+000  -0.000000e+000  0.000000e+000
    outer loop
      vertex  2.000000e+000  1.568955e+001 -4.665794e-001
      vertex  2.000000e+000 -9.310454e+000 -4.665794e-001
      vertex  2.000000e+000 -7.310454e+000 -1.966579e+000
    endloop
  endfacet
  facet normal  0.000000e+000  0.000000e+000  1.000000e+000
    outer loop
      vertex -3.000000e+000 -7.310454e+000 -2.966579e+000
      vertex -3.000000e+000 -1.331045e+001 -2.966579e+000
      vertex  0.000000e+000 -7.310454e+000 -2.966579e+000
    endloop
  endfacet
  facet normal  0.000000e+000  0.000000e+000  1.000000e+000
    outer loop
      vertex  0.000000e+000 -7.310454e+000 -2.966579e+000
      vertex -3.000000e+000 -1.331045e+001 -2.966579e+000
      vertex  0.000000e+000 -1.331045e+001 -2.966579e+000
    endloop
  endfacet
  facet normal  0.000000e+000  0.000000e+000 -1.000000e+000
    outer loop
      vertex -3.000000e+000  1.668955e+001  6.533421e+000
      vertex -3.000000e+000  2.268955e+001  6.533421e+000
      vertex  0.000000e+000  1.668955e+001  6.533421e+000
    endloop
  endfacet
  facet normal  0.000000e+000  0.000000e+000 -1.000000e+000
    outer loop
      vertex  0.000000e+000  1.668955e+001  6.533421e+000
      vertex -3.000000e+000  2.268955e+001  6.533421e+000
      vertex  0.000000e+000  2.268955e+001  6.533421e+000
    endloop
  endfacet
  facet normal -1.000000e+000  0.000000e+000  0.000000e+000
    outer loop
      vertex  0.000000e+000 -7.310454e+000 -1.966579e+000
      vertex  0.000000e+000 -7.310454e+000 -2.966579e+000
      vertex  0.000000e+000 -1.331045e+001 -2.966579e+000
    endloop
  endfacet
  facet normal -1.000000e+000  0.000000e+000  0.000000e+000
    outer loop
      vertex  0.000000e+000 -7.310454e+000 -1.966579e+000
      vertex  0.000000e+000 -1.331045e+001 -2.966579e+000
      vertex  0.000000e+000 -9.310454e+000 -4.665794e-001
    endloop
  endfacet
  facet normal -1.000000e+000  0.000000e+000  0.000000e+000
    outer loop
      vertex  0.000000e+000 -7.310454e+000 -1.966579e+000
      vertex  0.000000e+000 -9.310454e+000 -4.665794e-001
      vertex  0.000000e+000  1.568955e+001 -4.665794e-001
    endloop
  endfacet
  facet normal -1.000000e+000  0.000000e+000  -0.000000e+000
    outer loop
      vertex  0.000000e+000 -7.310454e+000 -1.966579e+000
      vertex  0.000000e+000  1.568955e+001 -4.665794e-001
      vertex  0.000000e+000  2.268955e+001 -1.966579e+000
    endloop
  endfacet
  facet normal -1.000000e+000  0.000000e+000  0.000000e+000
    outer loop
      vertex  0.000000e+000 -1.331045e+001  3.033421e+000
      vertex  0.000000e+000  1.568955e+001  1.533421e+000
      vertex  0.000000e+000 -9.310454e+000  1.533421e+000
    endloop
  endfacet
  facet normal -1.000000e+000  -0.000000e+000  0.000000e+000
    outer loop
      vertex  0.000000e+000 -1.331045e+001  3.033421e+000
      vertex  0.000000e+000 -9.310454e+000  1.533421e+000
      vertex  0.000000e+000 -9.693137e+000  1.457300e+000
    endloop
  endfacet
  facet normal -1.000000e+000  -0.000000e+000  0.000000e+000
    outer loop
      vertex  0.000000e+000 -1.331045e+001  3.033421e+000
      vertex  0.000000e+000 -9.693137e+000  1.457300e+000
      vertex  0.000000e+000 -1.001756e+001  1.240527e+000
    endloop
  endfacet
  facet normal -1.000000e+000  -0.000000e+000  0.000000e+000
    outer loop
      vertex  0.000000e+000 -1.331045e+001  3.033421e+000
      vertex  0.000000e+000 -1.001756e+001  1.240527e+000
      vertex  0.000000e+000 -1.331045e+001 -2.966579e+000
    endloop
  endfacet
  facet normal -1.000000e+000  0.000000e+000  0.000000e+000
    outer loop
      vertex  0.000000e+000  1.668955e+001  3.033421e+000
      vertex  0.000000e+000  1.668955e+001  6.533421e+000
      vertex  0.000000e+000  2.268955e+001  6.533421e+000
    endloop
  endfacet
  facet normal -1.000000e+000  0.000000e+000  -0.000000e+000
    outer loop
      vertex  0.000000e+000  1.668955e+001  3.033421e+000
      vertex  0.000000e+000  2.268955e+001  6.533421e+000
      vertex  0.000000e+000  2.268955e+001 -1.966579e+000
    endloop
  endfacet
  facet normal -1.000000e+000  0.000000e+000  0.000000e+000
    outer loop
      vertex  0.000000e+000  1.668955e+001  3.033421e+000
      vertex  0.000000e+000  2.268955e+001 -1.966579e+000
      vertex  0.000000e+000  1.607223e+001  1.457300e+000
    endloop
  endfacet
  facet normal -1.000000e+000  0.000000e+000  0.000000e+000
    outer loop
      vertex  0.000000e+000  1.668955e+001  3.033421e+000
      vertex  0.000000e+000  1.607223e+001  1.457300e+000
      vertex  0.000000e+000  1.568955e+001  1.533421e+000
    endloop
  endfacet
  facet normal -1.000000e+000  0.000000e+000  0.000000e+000
    outer loop
      vertex  0.000000e+000  1.668955e+001  3.033421e+000
      vertex  0.000000e+000  1.568955e+001  1.533421e+000
      vertex  0.000000e+000 -1.331045e+001  3.033421e+000
    endloop
  endfacet
  facet normal -1.000000e+000  0.000000e+000  0.000000e+000
    outer loop
      vertex  0.000000e+000 -1.331045e+001 -2.966579e+000
      vertex  0.000000e+000 -1.001756e+001  1.240527e+000
      vertex  0.000000e+000 -1.023433e+001  9.161040e-001
    endloop
  endfacet
  facet normal -1.000000e+000  0.000000e+000  0.000000e+000
    outer loop
      vertex  0.000000e+000 -1.331045e+001 -2.966579e+000
      vertex  0.000000e+000 -1.023433e+001  9.161040e-001
      vertex  0.000000e+000 -1.031045e+001  5.334206e-001
    endloop
  endfacet
  facet normal -1.000000e+000  0.000000e+000  -0.000000e+000
    outer loop
      vertex  0.000000e+000 -1.331045e+001 -2.966579e+000
      vertex  0.000000e+000 -1.031045e+001  5.334206e-001
      vertex  0.000000e+000 -1.023433e+001  1.507372e-001
    endloop
  endfacet
  facet normal -1.000000e+000  0.000000e+000  -0.000000e+000
    outer loop
      vertex  0.000000e+000 -1.331045e+001 -2.966579e+000
      vertex  0.000000e+000 -1.023433e+001  1.507372e-001
      vertex  0.000000e+000 -1.001756e+001 -1.736862e-001
    endloop
  endfacet
  facet normal -1.000000e+000  0.000000e+000  -0.000000e+000
    outer loop
      vertex  0.000000e+000 -1.331045e+001 -2.966579e+000
      vertex  0.000000e+000 -1.001756e+001 -1.736862e-001
      vertex  0.000000e+000 -9.693137e+000 -3.904589e-001
    endloop
  endfacet
  facet normal -1.000000e+000  0.000000e+000  -0.000000e+000
    outer loop
      vertex  0.000000e+000 -1.331045e+001 -2.966579e+000
      vertex  0.000000e+000 -9.693137e+000 -3.904589e-001
      vertex  0.000000e+000 -9.310454e+000 -4.665794e-001
    endloop
  endfacet
  facet normal -1.000000e+000  0.000000e+000  0.000000e+000
    outer loop
      vertex  0.000000e+000  2.268955e+001 -1.966579e+000
      vertex  0.000000e+000  1.568955e+001 -4.665794e-001
      vertex  0.000000e+000  1.607223e+001 -3.904589e-001
    endloop
  endfacet
  facet normal -1.000000e+000  0.000000e+000  0.000000e+000
    outer loop
      vertex  0.000000e+000  2.268955e+001 -1.966579e+000
      vertex  0.000000e+000  1.607223e+001 -3.904589e-001
      vertex  0.000000e+000  1.639665e+001 -1.736862e-001
    endloop
  endfacet
  facet normal -1.000000e+000  0.000000e+000  0.000000e+000
    outer loop
      vertex  0.000000e+000  2.268955e+001 -1.966579e+000
      vertex  0.000000e+000  1.639665e+001 -1.736862e-001
      vertex  0.000000e+000  1.661343e+001  1.507372e-001
    endloop
  endfacet
  facet normal -9.999999e-001  0.000000e+000  0.000000e+000
    outer loop
      vertex  0.000000e+000  2.268955e+001 -1.966579e+000
      vertex  0.000000e+000  1.661343e+001  1.507372e-001
      vertex  0.000000e+000  1.668955e+001  5.334206e-001
    endloop
  endfacet
  facet normal -1.000000e+000  0.000000e+000  0.000000e+000
    outer loop
      vertex  0.000000e+000  2.268955e+001 -1.966579e+000
      vertex  0.000000e+000  1.668955e+001  5.334206e-001
      vertex  0.000000e+000  1.661343e+001  9.161040e-001
    endloop
  endfacet
  facet normal -1.000000e+000  0.000000e+000  0.000000e+000
    outer loop
      vertex  0.000000e+000  2.268955e+001 -1.966579e+000
      vertex  0.000000e+000  1.661343e+001  9.161040e-001
      vertex  0.000000e+000  1.639665e+001  1.240527e+000
    endloop
  endfacet
  facet normal -1.000000e+000  0.000000e+000  0.000000e+000
    outer loop
      vertex  0.000000e+000  2.268955e+001 -1.966579e+000
      vertex  0.000000e+000  1.639665e+001  1.240527e+000
      vertex  0.000000e+000  1.607223e+001  1.457300e+000
    endloop
  endfacet
  facet normal -1.000000e+000  0.000000e+000  0.000000e+000
    outer loop
      vertex  0.000000e+000  1.468955e+001  5.334206e-001
      vertex  0.000000e+000 -8.386575e+000  9.161040e-001
      vertex  0.000000e+000  1.476567e+001  9.161040e-001
    endloop
  endfacet
  facet normal -1.000000e+000  0.000000e+000  0.000000e+000
    outer loop
      vertex  0.000000e+000  1.476567e+001  9.161040e-001
      vertex  0.000000e+000 -8.386575e+000  9.161040e-001
      vertex  0.000000e+000 -8.603347e+000  1.240527e+000
    endloop
  endfacet
  facet normal -1.000000e+000  0.000000e+000  0.000000e+000
    outer loop
      vertex  0.000000e+000  1.476567e+001  9.161040e-001
      vertex  0.000000e+000 -8.603347e+000  1.240527e+000
      vertex  0.000000e+000  1.498244e+001  1.240527e+000
    endloop
  endfacet
  facet normal -1.000000e+000  0.000000e+000  0.000000e+000
    outer loop
      vertex  0.000000e+000  1.498244e+001  1.240527e+000
      vertex  0.000000e+000 -8.603347e+000  1.240527e+000
      vertex  0.000000e+000 -8.927771e+000  1.457300e+000
    endloop
  endfacet
  facet normal -1.000000e+000  0.000000e+000  0.000000e+000
    outer loop
      vertex  0.000000e+000  1.498244e+001  1.240527e+000
      vertex  0.000000e+000 -8.927771e+000  1.457300e+000
      vertex  0.000000e+000  1.530686e+001  1.457300e+000
    endloop
  endfacet
  facet normal -9.999999e-001  0.000000e+000  0.000000e+000
    outer loop
      vertex  0.000000e+000  1.530686e+001  1.457300e+000
      vertex  0.000000e+000 -8.927771e+000  1.457300e+000
      vertex  0.000000e+000 -9.310454e+000  1.533421e+000
    endloop
  endfacet
  facet normal -1.000000e+000  0.000000e+000  0.000000e+000
    outer loop
      vertex  0.000000e+000  1.530686e+001  1.457300e+000
      vertex  0.000000e+000 -9.310454e+000  1.533421e+000
      vertex  0.000000e+000  1.568955e+001  1.533421e+000
    endloop
  endfacet
  facet normal -1.000000e+000  0.000000e+000  0.000000e+000
    outer loop
      vertex  0.000000e+000 -8.386575e+000  9.161040e-001
      vertex  0.000000e+000  1.468955e+001  5.334206e-001
      vertex  0.000000e+000 -8.310454e+000  5.334206e-001
    endloop
  endfacet
  facet normal -1.000000e+000  0.000000e+000  0.000000e+000
    outer loop
      vertex  0.000000e+000 -8.310454e+000  5.334206e-001
      vertex  0.000000e+000  1.468955e+001  5.334206e-001
      vertex  0.000000e+000  1.476567e+001  1.507372e-001
    endloop
  endfacet
  facet normal -1.000000e+000  0.000000e+000  0.000000e+000
    outer loop
      vertex  0.000000e+000 -8.310454e+000  5.334206e-001
      vertex  0.000000e+000  1.476567e+001  1.507372e-001
      vertex  0.000000e+000 -8.386575e+000  1.507372e-001
    endloop
  endfacet
  facet normal -1.000000e+000  0.000000e+000  0.000000e+000
    outer loop
      vertex  0.000000e+000 -8.386575e+000  1.507372e-001
      vertex  0.000000e+000  1.476567e+001  1.507372e-001
      vertex  0.000000e+000  1.498244e+001 -1.736862e-001
    endloop
  endfacet
  facet normal -1.000000e+000  0.000000e+000  0.000000e+000
    outer loop
      vertex  0.000000e+000 -8.386575e+000  1.507372e-001
      vertex  0.000000e+000  1.498244e+001 -1.736862e-001
      vertex  0.000000e+000 -8.603347e+000 -1.736862e-001
    endloop
  endfacet
  facet normal -1.000000e+000  0.000000e+000  0.000000e+000
    outer loop
      vertex  0.000000e+000 -8.603347e+000 -1.736862e-001
      vertex  0.000000e+000  1.498244e+001 -1.736862e-001
      vertex  0.000000e+000  1.530686e+001 -3.904589e-001
    endloop
  endfacet
  facet normal -9.999999e-001  0.000000e+000  0.000000e+000
    outer loop
      vertex  0.000000e+000 -8.603347e+000 -1.736862e-001
      vertex  0.000000e+000  1.530686e+001 -3.904589e-001
      vertex  0.000000e+000 -8.927771e+000 -3.904589e-001
    endloop
  endfacet
  facet normal -9.999999e-001  0.000000e+000  0.000000e+000
    outer loop
      vertex  0.000000e+000 -8.927771e+000 -3.904589e-001
      vertex  0.000000e+000  1.530686e+001 -3.904589e-001
      vertex  0.000000e+000  1.568955e+001 -4.665794e-001
    endloop
  endfacet
  facet normal -1.000000e+000  0.000000e+000  0.000000e+000
    outer loop
      vertex  0.000000e+000 -8.927771e+000 -3.904589e-001
      vertex  0.000000e+000  1.568955e+001 -4.665794e-001
      vertex  0.000000e+000 -9.310454e+000 -4.665794e-001
    endloop
  endfacet
  facet normal  0.000000e+000  1.950907e-001 -9.807853e-001
    outer loop
      vertex  0.000000e+000  1.568955e+001  1.533421e+000
      vertex  2.000000e+000  1.530686e+001  1.457300e+000
      vertex  0.000000e+000  1.530686e+001  1.457300e+000
    endloop
  endfacet
  facet normal  0.000000e+000  5.555695e-001 -8.314700e-001
    outer loop
      vertex  0.000000e+000  1.530686e+001  1.457300e+000
      vertex  2.000000e+000  1.530686e+001  1.457300e+000
      vertex  2.000000e+000  1.498244e+001  1.240527e+000
    endloop
  endfacet
  facet normal  0.000000e+000  5.555695e-001 -8.314700e-001
    outer loop
      vertex  0.000000e+000  1.530686e+001  1.457300e+000
      vertex  2.000000e+000  1.498244e+001  1.240527e+000
      vertex  0.000000e+000  1.498244e+001  1.240527e+000
    endloop
  endfacet
  facet normal  0.000000e+000  8.314692e-001 -5.555707e-001
    outer loop
      vertex  0.000000e+000  1.498244e+001  1.240527e+000
      vertex  2.000000e+000  1.498244e+001  1.240527e+000
      vertex  2.000000e+000  1.476567e+001  9.161040e-001
    endloop
  endfacet
  facet normal  0.000000e+000  8.314692e-001 -5.555707e-001
    outer loop
      vertex  0.000000e+000  1.498244e+001  1.240527e+000
      vertex  2.000000e+000  1.476567e+001  9.161040e-001
      vertex  0.000000e+000  1.476567e+001  9.161040e-001
    endloop
  endfacet
  facet normal  0.000000e+000  9.807853e-001 -1.950901e-001
    outer loop
      vertex  0.000000e+000  1.476567e+001  9.161040e-001
      vertex  2.000000e+000  1.476567e+001  9.161040e-001
      vertex  2.000000e+000  1.468955e+001  5.334206e-001
    endloop
  endfacet
  facet normal  0.000000e+000  9.807853e-001 -1.950901e-001
    outer loop
      vertex  0.000000e+000  1.476567e+001  9.161040e-001
      vertex  2.000000e+000  1.468955e+001  5.334206e-001
      vertex  0.000000e+000  1.468955e+001  5.334206e-001
    endloop
  endfacet
  facet normal  0.000000e+000  1.950907e-001 -9.807853e-001
    outer loop
      vertex  2.000000e+000  1.530686e+001  1.457300e+000
      vertex  0.000000e+000  1.568955e+001  1.533421e+000
      vertex  2.000000e+000  1.568955e+001  1.533421e+000
    endloop
  endfacet
  facet normal  -0.000000e+000 -1.950902e-001 -9.807853e-001
    outer loop
      vertex  2.000000e+000  1.568955e+001  1.533421e+000
      vertex  0.000000e+000  1.568955e+001  1.533421e+000
      vertex  0.000000e+000  1.607223e+001  1.457300e+000
    endloop
  endfacet
  facet normal  0.000000e+000 -1.950902e-001 -9.807853e-001
    outer loop
      vertex  2.000000e+000  1.568955e+001  1.533421e+000
      vertex  0.000000e+000  1.607223e+001  1.457300e+000
      vertex  2.000000e+000  1.607223e+001  1.457300e+000
    endloop
  endfacet
  facet normal  -0.000000e+000 -5.555707e-001 -8.314694e-001
    outer loop
      vertex  2.000000e+000  1.607223e+001  1.457300e+000
      vertex  0.000000e+000  1.607223e+001  1.457300e+000
      vertex  0.000000e+000  1.639665e+001  1.240527e+000
    endloop
  endfacet
  facet normal  0.000000e+000 -5.555707e-001 -8.314694e-001
    outer loop
      vertex  2.000000e+000  1.607223e+001  1.457300e+000
      vertex  0.000000e+000  1.639665e+001  1.240527e+000
      vertex  2.000000e+000  1.639665e+001  1.240527e+000
    endloop
  endfacet
  facet normal  -0.000000e+000 -8.314682e-001 -5.555725e-001
    outer loop
      vertex  2.000000e+000  1.639665e+001  1.240527e+000
      vertex  0.000000e+000  1.639665e+001  1.240527e+000
      vertex  0.000000e+000  1.661343e+001  9.161040e-001
    endloop
  endfacet
  facet normal  0.000000e+000 -8.314682e-001 -5.555725e-001
    outer loop
      vertex  2.000000e+000  1.639665e+001  1.240527e+000
      vertex  0.000000e+000  1.661343e+001  9.161040e-001
      vertex  2.000000e+000  1.661343e+001  9.161040e-001
    endloop
  endfacet
  facet normal  -0.000000e+000 -9.807853e-001 -1.950901e-001
    outer loop
      vertex  2.000000e+000  1.661343e+001  9.161040e-001
      vertex  0.000000e+000  1.661343e+001  9.161040e-001
      vertex  0.000000e+000  1.668955e+001  5.334206e-001
    endloop
  endfacet
  facet normal  0.000000e+000 -9.807853e-001 -1.950901e-001
    outer loop
      vertex  2.000000e+000  1.661343e+001  9.161040e-001
      vertex  0.000000e+000  1.668955e+001  5.334206e-001
      vertex  2.000000e+000  1.668955e+001  5.334206e-001
    endloop
  endfacet
  facet normal  0.000000e+000 -1.950902e-001  9.807853e-001
    outer loop
      vertex  0.000000e+000  1.568955e+001 -4.665794e-001
      vertex  2.000000e+000  1.607223e+001 -3.904589e-001
      vertex  0.000000e+000  1.607223e+001 -3.904589e-001
    endloop
  endfacet
  facet normal  0.000000e+000 -5.555708e-001  8.314692e-001
    outer loop
      vertex  0.000000e+000  1.607223e+001 -3.904589e-001
      vertex  2.000000e+000  1.607223e+001 -3.904589e-001
      vertex  2.000000e+000  1.639665e+001 -1.736862e-001
    endloop
  endfacet
  facet normal  0.000000e+000 -5.555708e-001  8.314692e-001
    outer loop
      vertex  0.000000e+000  1.607223e+001 -3.904589e-001
      vertex  2.000000e+000  1.639665e+001 -1.736862e-001
      vertex  0.000000e+000  1.639665e+001 -1.736862e-001
    endloop
  endfacet
  facet normal  0.000000e+000 -8.314682e-001  5.555725e-001
    outer loop
      vertex  0.000000e+000  1.639665e+001 -1.736862e-001
      vertex  2.000000e+000  1.639665e+001 -1.736862e-001
      vertex  2.000000e+000  1.661343e+001  1.507372e-001
    endloop
  endfacet
  facet normal  0.000000e+000 -8.314682e-001  5.555725e-001
    outer loop
      vertex  0.000000e+000  1.639665e+001 -1.736862e-001
      vertex  2.000000e+000  1.661343e+001  1.507372e-001
      vertex  0.000000e+000  1.661343e+001  1.507372e-001
    endloop
  endfacet
  facet normal  0.000000e+000 -9.807853e-001  1.950901e-001
    outer loop
      vertex  0.000000e+000  1.661343e+001  1.507372e-001
      vertex  2.000000e+000  1.661343e+001  1.507372e-001
      vertex  2.000000e+000  1.668955e+001  5.334206e-001
    endloop
  endfacet
  facet normal  0.000000e+000 -9.807853e-001  1.950901e-001
    outer loop
      vertex  0.000000e+000  1.661343e+001  1.507372e-001
      vertex  2.000000e+000  1.668955e+001  5.334206e-001
      vertex  0.000000e+000  1.668955e+001  5.334206e-001
    endloop
  endfacet
  facet normal  0.000000e+000 -1.950902e-001  9.807853e-001
    outer loop
      vertex  2.000000e+000  1.607223e+001 -3.904589e-001
      vertex  0.000000e+000  1.568955e+001 -4.665794e-001
      vertex  2.000000e+000  1.568955e+001 -4.665794e-001
    endloop
  endfacet
  facet normal  0.000000e+000  1.950907e-001  9.807853e-001
    outer loop
      vertex  2.000000e+000  1.568955e+001 -4.665794e-001
      vertex  0.000000e+000  1.568955e+001 -4.665794e-001
      vertex  0.000000e+000  1.530686e+001 -3.904589e-001
    endloop
  endfacet
  facet normal  -0.000000e+000  1.950907e-001  9.807853e-001
    outer loop
      vertex  2.000000e+000  1.568955e+001 -4.665794e-001
      vertex  0.000000e+000  1.530686e+001 -3.904589e-001
      vertex  2.000000e+000  1.530686e+001 -3.904589e-001
    endloop
  endfacet
  facet normal  0.000000e+000  5.555697e-001  8.314700e-001
    outer loop
      vertex  2.000000e+000  1.530686e+001 -3.904589e-001
      vertex  0.000000e+000  1.530686e+001 -3.904589e-001
      vertex  0.000000e+000  1.498244e+001 -1.736862e-001
    endloop
  endfacet
  facet normal  -0.000000e+000  5.555697e-001  8.314700e-001
    outer loop
      vertex  2.000000e+000  1.530686e+001 -3.904589e-001
      vertex  0.000000e+000  1.498244e+001 -1.736862e-001
      vertex  2.000000e+000  1.498244e+001 -1.736862e-001
    endloop
  endfacet
  facet normal  0.000000e+000  8.314692e-001  5.555707e-001
    outer loop
      vertex  2.000000e+000  1.498244e+001 -1.736862e-001
      vertex  0.000000e+000  1.498244e+001 -1.736862e-001
      vertex  0.000000e+000  1.476567e+001  1.507372e-001
    endloop
  endfacet
  facet normal  -0.000000e+000  8.314692e-001  5.555707e-001
    outer loop
      vertex  2.000000e+000  1.498244e+001 -1.736862e-001
      vertex  0.000000e+000  1.476567e+001  1.507372e-001
      vertex  2.000000e+000  1.476567e+001  1.507372e-001
    endloop
  endfacet
  facet normal  0.000000e+000  9.807853e-001  1.950901e-001
    outer loop
      vertex  2.000000e+000  1.476567e+001  1.507372e-001
      vertex  0.000000e+000  1.476567e+001  1.507372e-001
      vertex  0.000000e+000  1.468955e+001  5.334206e-001
    endloop
  endfacet
  facet normal  -0.000000e+000  9.807853e-001  1.950901e-001
    outer loop
      vertex  2.000000e+000  1.476567e+001  1.507372e-001
      vertex  0.000000e+000  1.468955e+001  5.334206e-001
      vertex  2.000000e+000  1.468955e+001  5.334206e-001
    endloop
  endfacet
  facet normal  0.000000e+000  1.950907e-001 -9.807853e-001
    outer loop
      vertex  0.000000e+000 -9.310454e+000  1.533421e+000
      vertex  2.000000e+000 -9.693137e+000  1.457300e+000
      vertex  0.000000e+000 -9.693137e+000  1.457300e+000
    endloop
  endfacet
  facet normal  0.000000e+000  5.555695e-001 -8.314700e-001
    outer loop
      vertex  0.000000e+000 -9.693137e+000  1.457300e+000
      vertex  2.000000e+000 -9.693137e+000  1.457300e+000
      vertex  2.000000e+000 -1.001756e+001  1.240527e+000
    endloop
  endfacet
  facet normal  0.000000e+000  5.555695e-001 -8.314700e-001
    outer loop
      vertex  0.000000e+000 -9.693137e+000  1.457300e+000
      vertex  2.000000e+000 -1.001756e+001  1.240527e+000
      vertex  0.000000e+000 -1.001756e+001  1.240527e+000
    endloop
  endfacet
  facet normal  0.000000e+000  8.314692e-001 -5.555707e-001
    outer loop
      vertex  0.000000e+000 -1.001756e+001  1.240527e+000
      vertex  2.000000e+000 -1.001756e+001  1.240527e+000
      vertex  2.000000e+000 -1.023433e+001  9.161040e-001
    endloop
  endfacet
  facet normal  0.000000e+000  8.314692e-001 -5.555707e-001
    outer loop
      vertex  0.000000e+000 -1.001756e+001  1.240527e+000
      vertex  2.000000e+000 -1.023433e+001  9.161040e-001
      vertex  0.000000e+000 -1.023433e+001  9.161040e-001
    endloop
  endfacet
  facet normal  0.000000e+000  9.807853e-001 -1.950901e-001
    outer loop
      vertex  0.000000e+000 -1.023433e+001  9.161040e-001
      vertex  2.000000e+000 -1.023433e+001  9.161040e-001
      vertex  2.000000e+000 -1.031045e+001  5.334206e-001
    endloop
  endfacet
  facet normal  0.000000e+000  9.807853e-001 -1.950901e-001
    outer loop
      vertex  0.000000e+000 -1.023433e+001  9.161040e-001
      vertex  2.000000e+000 -1.031045e+001  5.334206e-001
      vertex  0.000000e+000 -1.031045e+001  5.334206e-001
    endloop
  endfacet
  facet normal  0.000000e+000  1.950907e-001 -9.807853e-001
    outer loop
      vertex  2.000000e+000 -9.693137e+000  1.457300e+000
      vertex  0.000000e+000 -9.310454e+000  1.533421e+000
      vertex  2.000000e+000 -9.310454e+000  1.533421e+000
    endloop
  endfacet
  facet normal  -0.000000e+000 -1.950902e-001 -9.807853e-001
    outer loop
      vertex  2.000000e+000 -9.310454e+000  1.533421e+000
      vertex  0.000000e+000 -9.310454e+000  1.533421e+000
      vertex  0.000000e+000 -8.927771e+000  1.457300e+000
    endloop
  endfacet
  facet normal  0.000000e+000 -1.950902e-001 -9.807853e-001
    outer loop
      vertex  2.000000e+000 -9.310454e+000  1.533421e+000
      vertex  0.000000e+000 -8.927771e+000  1.457300e+000
      vertex  2.000000e+000 -8.927771e+000  1.457300e+000
    endloop
  endfacet
  facet normal  -0.000000e+000 -5.555695e-001 -8.314700e-001
    outer loop
      vertex  2.000000e+000 -8.927771e+000  1.457300e+000
      vertex  0.000000e+000 -8.927771e+000  1.457300e+000
      vertex  0.000000e+000 -8.603347e+000  1.240527e+000
    endloop
  endfacet
  facet normal  0.000000e+000 -5.555695e-001 -8.314700e-001
    outer loop
      vertex  2.000000e+000 -8.927771e+000  1.457300e+000
      vertex  0.000000e+000 -8.603347e+000  1.240527e+000
      vertex  2.000000e+000 -8.603347e+000  1.240527e+000
    endloop
  endfacet
  facet normal  -0.000000e+000 -8.314704e-001 -5.555690e-001
    outer loop
      vertex  2.000000e+000 -8.603347e+000  1.240527e+000
      vertex  0.000000e+000 -8.603347e+000  1.240527e+000
      vertex  0.000000e+000 -8.386575e+000  9.161040e-001
    endloop
  endfacet
  facet normal  0.000000e+000 -8.314704e-001 -5.555690e-001
    outer loop
      vertex  2.000000e+000 -8.603347e+000  1.240527e+000
      vertex  0.000000e+000 -8.386575e+000  9.161040e-001
      vertex  2.000000e+000 -8.386575e+000  9.161040e-001
    endloop
  endfacet
  facet normal  -0.000000e+000 -9.807853e-001 -1.950901e-001
    outer loop
      vertex  2.000000e+000 -8.386575e+000  9.161040e-001
      vertex  0.000000e+000 -8.386575e+000  9.161040e-001
      vertex  0.000000e+000 -8.310454e+000  5.334206e-001
    endloop
  endfacet
  facet normal  0.000000e+000 -9.807853e-001 -1.950901e-001
    outer loop
      vertex  2.000000e+000 -8.386575e+000  9.161040e-001
      vertex  0.000000e+000 -8.310454e+000  5.334206e-001
      vertex  2.000000e+000 -8.310454e+000  5.334206e-001
    endloop
  endfacet
  facet normal  0.000000e+000 -1.950902e-001  9.807853e-001
    outer loop
      vertex  0.000000e+000 -9.310454e+000 -4.665794e-001
      vertex  2.000000e+000 -8.927771e+000 -3.904589e-001
      vertex  0.000000e+000 -8.927771e+000 -3.904589e-001
    endloop
  endfacet
  facet normal  0.000000e+000 -5.555697e-001  8.314700e-001
    outer loop
      vertex  0.000000e+000 -8.927771e+000 -3.904589e-001
      vertex  2.000000e+000 -8.927771e+000 -3.904589e-001
      vertex  2.000000e+000 -8.603347e+000 -1.736862e-001
    endloop
  endfacet
  facet normal  0.000000e+000 -5.555697e-001  8.314700e-001
    outer loop
      vertex  0.000000e+000 -8.927771e+000 -3.904589e-001
      vertex  2.000000e+000 -8.603347e+000 -1.736862e-001
      vertex  0.000000e+000 -8.603347e+000 -1.736862e-001
    endloop
  endfacet
  facet normal  0.000000e+000 -8.314704e-001  5.555690e-001
    outer loop
      vertex  0.000000e+000 -8.603347e+000 -1.736862e-001
      vertex  2.000000e+000 -8.603347e+000 -1.736862e-001
      vertex  2.000000e+000 -8.386575e+000  1.507372e-001
    endloop
  endfacet
  facet normal  0.000000e+000 -8.314704e-001  5.555690e-001
    outer loop
      vertex  0.000000e+000 -8.603347e+000 -1.736862e-001
      vertex  2.000000e+000 -8.386575e+000  1.507372e-001
      vertex  0.000000e+000 -8.386575e+000  1.507372e-001
    endloop
  endfacet
  facet normal  0.000000e+000 -9.807853e-001  1.950901e-001
    outer loop
      vertex  0.000000e+000 -8.386575e+000  1.507372e-001
      vertex  2.000000e+000 -8.386575e+000  1.507372e-001
      vertex  2.000000e+000 -8.310454e+000  5.334206e-001
    endloop
  endfacet
  facet normal  0.000000e+000 -9.807853e-001  1.950901e-001
    outer loop
      vertex  0.000000e+000 -8.386575e+000  1.507372e-001
      vertex  2.000000e+000 -8.310454e+000  5.334206e-001
      vertex  0.000000e+000 -8.310454e+000  5.334206e-001
    endloop
  endfacet
  facet normal  0.000000e+000 -1.950902e-001  9.807853e-001
    outer loop
      vertex  2.000000e+000 -8.927771e+000 -3.904589e-001
      vertex  0.000000e+000 -9.310454e+000 -4.665794e-001
      vertex  2.000000e+000 -9.310454e+000 -4.665794e-001
    endloop
  endfacet
  facet normal  0.000000e+000  1.950907e-001  9.807853e-001
    outer loop
      vertex  2.000000e+000 -9.310454e+000 -4.665794e-001
      vertex  0.000000e+000 -9.310454e+000 -4.665794e-001
      vertex  0.000000e+000 -9.693137e+000 -3.904589e-001
    endloop
  endfacet
  facet normal  -0.000000e+000  1.950907e-001  9.807853e-001
    outer loop
      vertex  2.000000e+000 -9.310454e+000 -4.665794e-001
      vertex  0.000000e+000 -9.693137e+000 -3.904589e-001
      vertex  2.000000e+000 -9.693137e+000 -3.904589e-001
    endloop
  endfacet
  facet normal  0.000000e+000  5.555697e-001  8.314700e-001
    outer loop
      vertex  2.000000e+000 -9.693137e+000 -3.904589e-001
      vertex  0.000000e+000 -9.693137e+000 -3.904589e-001
      vertex  0.000000e+000 -1.001756e+001 -1.736862e-001
    endloop
  endfacet
  facet normal  -0.000000e+000  5.555697e-001  8.314700e-001
    outer loop
      vertex  2.000000e+000 -9.693137e+000 -3.904589e-001
      vertex  0.000000e+000 -1.001756e+001 -1.736862e-001
      vertex  2.000000e+000 -1.001756e+001 -1.736862e-001
    endloop
  endfacet
  facet normal  0.000000e+000  8.314692e-001  5.555707e-001
    outer loop
      vertex  2.000000e+000 -1.001756e+001 -1.736862e-001
      vertex  0.000000e+000 -1.001756e+001 -1.736862e-001
      vertex  0.000000e+000 -1.023433e+001  1.507372e-001
    endloop
  endfacet
  facet normal  -0.000000e+000  8.314692e-001  5.555707e-001
    outer loop
      vertex  2.000000e+000 -1.001756e+001 -1.736862e-001
      vertex  0.000000e+000 -1.023433e+001  1.507372e-001
      vertex  2.000000e+000 -1.023433e+001  1.507372e-001
    endloop
  endfacet
  facet normal  0.000000e+000  9.807853e-001  1.950901e-001
    outer loop
      vertex  2.000000e+000 -1.023433e+001  1.507372e-001
      vertex  0.000000e+000 -1.023433e+001  1.507372e-001
      vertex  0.000000e+000 -1.031045e+001  5.334206e-001
    endloop
  endfacet
  facet normal  -0.000000e+000  9.807853e-001  1.950901e-001
    outer loop
      vertex  2.000000e+000 -1.023433e+001  1.507372e-001
      vertex  0.000000e+000 -1.031045e+001  5.334206e-001
      vertex  2.000000e+000 -1.031045e+001  5.334206e-001
    endloop
  endfacet
  facet normal  0.000000e+000  0.000000e+000  1.000000e+000
    outer loop
      vertex  2.000000e+000 -1.331045e+001  3.033421e+000
      vertex  2.000000e+000  1.668955e+001  3.033421e+000
      vertex  0.000000e+000 -1.331045e+001  3.033421e+000
    endloop
  endfacet
  facet normal  0.000000e+000  0.000000e+000  1.000000e+000
    outer loop
      vertex  0.000000e+000 -1.331045e+001  3.033421e+000
      vertex  2.000000e+000  1.668955e+001  3.033421e+000
      vertex  0.000000e+000  1.668955e+001  3.033421e+000
    endloop
  endfacet
  facet normal  0.000000e+000  0.000000e+000 -1.000000e+000
    outer loop
      vertex  2.000000e+000  2.268955e+001 -1.966579e+000
      vertex  2.000000e+000 -7.310454e+000 -1.966579e+000
      vertex  0.000000e+000  2.268955e+001 -1.966579e+000
    endloop
  endfacet
  facet normal  0.000000e+000  0.000000e+000 -1.000000e+000
    outer loop
      vertex  0.000000e+000  2.268955e+001 -1.966579e+000
      vertex  2.000000e+000 -7.310454e+000 -1.966579e+000
      vertex  0.000000e+000 -7.310454e+000 -1.966579e+000
    endloop
  endfacet
endsolid CATIA STL
